<svg width="66" height="66" viewBox="0 0 66 66" fill="none" xmlns="http://www.w3.org/2000/svg">
<g clip-path="url(#clip0_8_757)">
<path d="M27.1816 0.0818481C26.2876 0.292793 25.3032 1.1265 25.032 1.88991C24.9617 2.08076 24.5197 3.76828 24.0476 5.64665C23.5755 7.52502 23.1637 9.13218 23.1335 9.22258C23.1134 9.31298 22.8724 9.46366 22.6112 9.56411C22.35 9.66455 21.7474 9.92572 21.2652 10.1367L20.3913 10.5384L17.2774 8.67012C15.5698 7.63551 13.9526 6.70135 13.6814 6.58081C13.36 6.44019 12.9883 6.36987 12.5363 6.35983C11.3611 6.34978 10.9292 6.64108 8.51841 9.08195C6.10767 11.5228 5.96704 11.7338 5.97708 12.9793C5.97708 13.9537 5.88668 13.7628 8.30747 17.7807L10.1055 20.7741L9.61329 21.9493C9.34208 22.5922 9.08091 23.2149 9.04074 23.3254C8.97042 23.4962 8.38783 23.667 5.40453 24.4203C3.4458 24.9025 1.63775 25.3946 1.36654 25.5051C1.07524 25.6357 0.693538 25.927 0.392195 26.2585C-0.401342 27.1223 -0.431476 27.3132 -0.391297 31.0298L-0.361162 34.1738L-0.0698643 34.7061C0.261613 35.2988 0.703582 35.7307 1.27613 36.022C1.47703 36.1225 3.29513 36.6247 5.31413 37.137C7.33313 37.6392 8.98047 38.0611 8.99051 38.0711C8.99051 38.0812 9.14118 38.4729 9.33203 38.945C9.51284 39.4171 9.774 40.0198 9.90458 40.281C10.0653 40.6024 10.1155 40.8033 10.0553 40.8837C9.99499 40.954 9.66351 41.4964 9.3019 42.1091C8.95033 42.7118 8.08648 44.1583 7.39339 45.3034C6.0474 47.5333 5.85655 48.0255 5.94695 48.9396C6.03735 49.8536 6.30856 50.2253 8.55859 52.4854C11.0899 55.0267 11.2908 55.1673 12.5464 55.1673C13.5709 55.1673 13.2796 55.2979 17.4181 52.8269C20.1 51.2197 20.4516 51.0389 20.6324 51.1494C20.7429 51.2197 21.3355 51.4708 21.9382 51.7119C22.5509 51.953 23.0632 52.1539 23.0733 52.1639C23.0934 52.184 23.5353 53.8615 24.0476 55.9106C25.022 59.7879 25.1927 60.26 25.8155 60.7823C26.5789 61.4252 26.82 61.4955 28.628 61.5257L30.2955 61.5658L30.3457 62.4598C30.416 63.5647 30.7173 64.2478 31.4305 64.8907C32.3546 65.7244 31.1894 65.6741 46.9999 65.644L61.0123 65.6139L61.5548 65.3125C62.1775 64.971 62.74 64.3482 62.9912 63.7255C63.1519 63.3337 63.1619 62.3594 63.1619 50.3358C63.172 35.5399 63.2523 36.7955 62.278 35.8211C61.8762 35.4294 61.5648 35.2084 61.2032 35.0878L60.6809 34.9171L60.9018 34.4952C61.1027 34.0934 61.1128 33.9427 61.1128 30.8088C61.1128 27.6748 61.1027 27.5241 60.8918 27.0721C60.6105 26.4694 59.9677 25.7663 59.4855 25.5453C59.2746 25.4549 57.4565 24.9527 55.4375 24.4404L51.7812 23.5163L51.5401 22.9136C51.4095 22.5922 51.1484 21.9794 50.9575 21.5676L50.606 20.8142L52.6149 17.4693C54.7243 13.9436 54.9152 13.5318 54.7846 12.6478C54.6339 11.6032 54.3527 11.2014 52.193 9.03173C49.8225 6.65112 49.4006 6.36987 48.2153 6.36987C47.3213 6.36987 47.1305 6.46027 43.3938 8.70026L40.3503 10.5384L39.4764 10.1367C39.0043 9.91567 38.4217 9.6746 38.1806 9.60428C37.9496 9.53397 37.7185 9.43352 37.6683 9.37325C37.6181 9.31298 37.1862 7.6556 36.704 5.69687C36.2219 3.73814 35.7196 1.93008 35.589 1.67897C35.2977 1.08633 34.7151 0.543907 34.0924 0.252609C33.6102 0.0316238 33.4897 0.0215836 30.5767 0.00148773C28.9193 -0.00855255 27.3925 0.0215836 27.1816 0.0818481ZM33.4194 2.24147C33.5399 2.32183 33.6906 2.48255 33.7509 2.59304C33.8111 2.71358 34.2631 4.41114 34.7553 6.37992C35.2475 8.35873 35.7397 10.1567 35.8603 10.3978C36.1214 10.9001 36.3826 11.101 37.2063 11.4224C37.5377 11.553 38.261 11.8644 38.8134 12.1054C39.6371 12.4771 39.9284 12.5675 40.3904 12.5574C40.963 12.5574 41.0132 12.5374 44.4284 10.4882C46.5881 9.1824 47.9843 8.40896 48.155 8.40896C48.6171 8.40896 48.9184 8.66008 50.847 10.5887C52.6451 12.4068 52.7254 12.5072 52.7254 12.8889C52.7254 13.2204 52.4341 13.7628 50.8571 16.3945C49.8325 18.1022 48.9084 19.6792 48.7979 19.8801C48.5367 20.3924 48.5468 21.2462 48.818 21.7986C48.9285 22.0297 49.2198 22.7127 49.4709 23.3154C50.0334 24.7116 50.2142 24.9929 50.6863 25.254C50.8973 25.3746 52.7455 25.8868 54.7846 26.3991C58.0491 27.2128 58.5313 27.3634 58.7824 27.6045L59.0536 27.8757V30.7786C59.0536 33.9327 59.0436 33.9829 58.4811 34.2039C58.3304 34.2642 57.6473 34.455 56.9743 34.6258L55.7489 34.9271H49.9531H44.1673L44.2175 34.6459C44.2577 34.4952 44.3581 34.0331 44.4586 33.6213C44.7097 32.5465 44.7097 29.0911 44.4686 27.946C43.4742 23.3556 40.5612 19.6792 36.4027 17.7506C35.358 17.2584 34.0321 16.8466 33.5299 16.8466C32.656 16.8466 32.214 17.9515 32.8468 18.5441C32.9674 18.6446 33.4495 18.8555 33.9216 19.0062C38.3011 20.3622 41.4451 23.8076 42.4396 28.3478C42.5702 28.9204 42.6204 29.6134 42.6204 30.7586C42.6304 32.3758 42.5601 32.8981 42.1684 34.2441L41.9675 34.9271H37.4172C33.5098 34.9271 32.8066 34.9472 32.3948 35.0878C31.7519 35.3088 30.9182 36.0923 30.6169 36.7553L30.3758 37.2876L30.3457 48.4072L30.3256 59.5368H29.0198C27.6235 59.5368 27.3021 59.4665 27.0711 59.1149C26.9907 58.9843 26.5086 57.2566 26.0063 55.2678C25.0119 51.3403 24.9717 51.1996 24.6403 50.8079C24.4092 50.5266 24.2284 50.4362 22.109 49.5523C20.7027 48.9597 20.2406 48.8793 19.648 49.1304C19.4672 49.2007 17.8902 50.1249 16.1424 51.1796C14.3946 52.2242 12.8477 53.1081 12.7071 53.1483C12.5765 53.1785 12.3656 53.1684 12.2551 53.1282C12.1345 53.0881 11.1401 52.1539 10.0352 51.049C8.09653 49.1204 8.02621 49.03 8.02621 48.6483C8.02621 48.3168 8.32756 47.7442 10.0553 44.8815C11.9939 41.6471 12.0843 41.4763 12.1245 40.9038C12.1546 40.3714 12.1245 40.2006 11.793 39.4975C11.5921 39.0555 11.2908 38.3323 11.12 37.8903C10.7584 36.9461 10.447 36.4941 10.005 36.2631C9.82423 36.1727 7.96595 35.6704 5.87664 35.1381C2.32079 34.234 2.04958 34.1537 1.85873 33.8925C1.65783 33.6213 1.64779 33.4907 1.64779 30.7385V27.8757L1.95918 27.6045C2.22034 27.3634 2.78285 27.1927 5.95699 26.3991C7.99608 25.8969 9.774 25.4147 9.92467 25.3444C10.4068 25.0933 10.7182 24.6815 11.0497 23.8478C11.2305 23.3957 11.5519 22.6223 11.7729 22.1301C12.1144 21.3567 12.1647 21.1658 12.1245 20.6636C12.0843 20.1212 11.9638 19.8901 10.1657 16.8867C7.87554 13.0496 8.02621 13.3309 8.02621 12.8588C8.02621 12.4972 8.12666 12.3766 10.0753 10.428L12.1245 8.37882L12.5664 8.42905C12.8979 8.46923 13.7417 8.93129 16.3332 10.4882C18.4929 11.794 19.7987 12.5173 20.0498 12.5574C20.552 12.6378 20.9337 12.5374 22.1391 12.005C22.6916 11.7539 23.3847 11.4726 23.676 11.3621C24.2485 11.1612 24.811 10.669 24.9918 10.2371C25.0521 10.0864 25.5041 8.31855 26.0063 6.29956C26.8501 2.90443 26.9405 2.61313 27.2117 2.35197L27.5131 2.08076H30.3557C32.7564 2.08076 33.2285 2.10085 33.4194 2.24147ZM60.8215 37.2776C61.1429 37.599 61.163 37.6593 61.163 38.2821V38.945H59.9375C59.2545 38.945 52.8962 38.945 45.7945 38.9551C38.6929 38.9551 32.7866 38.9551 32.666 38.9551C32.4551 38.945 32.435 38.9049 32.435 38.3122C32.445 37.6292 32.5857 37.2776 32.9473 37.0767C33.1482 36.9662 35.6995 36.9461 46.8291 36.9361H60.48L60.8215 37.2776ZM61.1429 52.0534L61.1128 63.0525L60.8315 63.3237L60.5603 63.6049H46.789H33.0176L32.7263 63.2734L32.435 62.952V52.0032V41.0544H46.799H61.163L61.1429 52.0534Z" fill="#EE1D1D"/>
<path d="M27.7417 16.6558C26.4559 16.9069 25.6925 17.1781 25.4515 17.4694C25.0095 18.0018 25.1702 18.6748 25.8231 19.0163C26.1044 19.157 26.1847 19.157 26.8979 18.9761C27.3198 18.8556 27.9325 18.715 28.264 18.6547C29.0374 18.5141 29.2986 18.3735 29.4794 18.0319C29.7104 17.59 29.6502 17.2585 29.2785 16.8868C28.9069 16.5152 28.6256 16.475 27.7417 16.6558Z" fill="#EE1D1D"/>
<path d="M20.4114 20.4826C20.1101 20.6232 19.8489 21.2158 19.9293 21.5473C20.0096 21.9089 21.7474 23.6467 22.1592 23.7873C22.7217 23.9681 23.3947 23.4558 23.3947 22.8431C23.3947 22.3911 23.1737 22.0696 22.2496 21.1857C21.4762 20.4424 21.3556 20.362 21.0141 20.3721C20.8032 20.3721 20.532 20.4223 20.4114 20.4826Z" fill="#EE1D1D"/>
<path d="M28.8177 22.724C27.3713 23.0153 25.7038 23.8691 24.6692 24.8635C23.725 25.7776 22.7909 27.3546 22.4292 28.6504C22.1781 29.5745 22.1279 31.5333 22.3288 32.4574C22.831 34.6773 24.1369 36.5556 25.9951 37.7208C27.1001 38.4139 27.7429 38.3637 28.0744 37.5802C28.1648 37.3592 28.1748 37.1684 28.1146 36.9474C28.0141 36.5757 27.8635 36.415 27.4114 36.184C25.9349 35.4306 24.7094 33.7632 24.3377 32.0254C23.715 29.0622 25.4326 26.0388 28.3757 24.964C28.8177 24.8033 29.2697 24.7329 30.1537 24.7028C31.2184 24.6626 31.4193 24.6928 32.1727 24.9238C33.6995 25.3959 34.9551 26.4004 35.7185 27.7765C36.2508 28.7408 36.4517 29.5042 36.4819 30.7096C36.502 31.2922 36.5723 31.8647 36.6325 31.9853C36.9741 32.608 37.6973 32.6984 38.2196 32.1761C38.5611 31.8346 38.5611 31.8346 38.5611 30.8703C38.5611 28.5901 37.7274 26.5611 36.1303 24.964C34.2519 23.0856 31.3892 22.2117 28.8177 22.724Z" fill="#EE1D1D"/>
<path d="M17.3601 24.8729C17.0286 25.2044 16.9784 25.6263 17.2194 26.0783C17.3299 26.2993 17.6212 26.4801 18.5353 26.8819C19.1782 27.1631 19.811 27.3942 19.9516 27.3942C20.8054 27.3942 21.3077 26.3596 20.7652 25.7468C20.4639 25.4153 18.5052 24.5816 18.023 24.5816C17.7518 24.5816 17.5811 24.662 17.3601 24.8729Z" fill="#EE1D1D"/>
<path d="M29.7335 28.8496C28.1565 29.3518 27.835 31.4914 29.2011 32.4557C29.6833 32.7972 30.4868 32.9077 31.0494 32.7269C31.7324 32.4958 32.4255 31.5617 32.4355 30.8485C32.4355 30.4166 32.1744 29.7134 31.9032 29.4221C31.3708 28.8496 30.4668 28.6085 29.7335 28.8496Z" fill="#EE1D1D"/>
<path d="M16.3925 29.9853C16.272 30.0757 16.1213 30.3068 16.051 30.4775C15.9606 30.7487 15.9706 30.8693 16.1313 31.1807C16.2318 31.3916 16.4226 31.6126 16.5633 31.6829C16.8847 31.8436 19.205 31.8537 19.5064 31.703C20.1392 31.3816 20.2798 30.588 19.7876 30.0958L19.4963 29.8045H18.0499C16.8445 29.8045 16.5733 29.8347 16.3925 29.9853Z" fill="#EE1D1D"/>
<path d="M18.4836 34.4748C17.3083 34.957 16.9668 35.2483 16.9668 35.7806C16.9668 36.2226 17.3585 36.6947 17.8106 36.7751C18.0818 36.8253 18.3932 36.7449 19.2871 36.3733C20.593 35.8409 20.6633 35.8007 20.8541 35.3487C20.9646 35.0775 20.9646 34.9771 20.8441 34.6858C20.5226 33.9023 19.9802 33.852 18.4836 34.4748Z" fill="#EE1D1D"/>
<path d="M21.938 37.8396C21.5463 38.0003 20.0094 39.6777 19.9291 40.0293C19.8487 40.4311 20.1099 40.9434 20.5217 41.1342C21.0541 41.3954 21.3755 41.2347 22.4202 40.1599C23.2338 39.3463 23.3945 39.1253 23.3945 38.8641C23.3945 38.0304 22.6813 37.5282 21.938 37.8396Z" fill="#EE1D1D"/>
<path d="M25.3162 40.4233C24.9546 40.7649 24.1912 42.5528 24.1711 43.0952C24.1611 43.4167 24.2113 43.5372 24.4825 43.7783C24.9144 44.17 25.3966 44.17 25.7983 43.7883C26.17 43.4468 26.9435 41.6488 26.9535 41.1164C26.9535 40.805 26.8932 40.6745 26.6321 40.4434C26.2001 40.0517 25.718 40.0517 25.3162 40.4233Z" fill="#EE1D1D"/>
<path d="M43.2323 45.2831C43.1218 45.3433 42.2579 46.167 41.3037 47.1112L39.576 48.8289L38.8929 48.1257C37.9387 47.1313 37.6373 47.0007 37.0547 47.3523C36.7132 47.5431 36.5525 47.8746 36.5525 48.3367C36.5525 48.628 36.6831 48.8088 37.5871 49.7128C38.9833 51.1291 39.2043 51.2999 39.6463 51.2999C39.9878 51.2999 40.1586 51.1592 42.3483 48.9594C44.6787 46.6391 44.6887 46.619 44.6887 46.1871C44.6887 45.4136 43.9053 44.9214 43.2323 45.2831Z" fill="#EE1D1D"/>
<path d="M47.4412 47.2819C46.7883 47.5431 46.6075 48.3768 47.0896 48.9092L47.3809 49.2406L51.7303 49.2708C54.8743 49.2909 56.16 49.2607 56.371 49.1804C57.0741 48.8891 57.2549 48.1257 56.7527 47.5632L56.4614 47.2317L52.0517 47.2116C49.6309 47.2015 47.5517 47.2317 47.4412 47.2819Z" fill="#EE1D1D"/>
<path d="M43.4334 53.4193C43.2325 53.4796 42.5193 54.1124 41.3742 55.2575L39.6264 57.0153L38.863 56.272C38.4411 55.8702 37.9791 55.4986 37.8284 55.4684C37.1554 55.2977 36.5527 55.7597 36.5527 56.4327C36.5527 56.8446 36.603 56.9048 37.8284 58.1504C39.2046 59.5366 39.4758 59.6973 40.0282 59.406C40.1889 59.3156 41.3039 58.2609 42.5093 57.0555L44.689 54.8557V54.4037C44.689 54.1626 44.6187 53.8814 44.5484 53.791C44.3374 53.5097 43.7749 53.3289 43.4334 53.4193Z" fill="#EE1D1D"/>
<path d="M47.3109 55.5594C46.7383 55.8808 46.6278 56.6744 47.0899 57.1364L47.3812 57.4277H49.8622H52.3433L52.6346 57.1364C53.1167 56.6442 53.0163 55.8808 52.4236 55.5695C52.0219 55.3585 47.6825 55.3485 47.3109 55.5594Z" fill="#EE1D1D"/>
</g>
<defs>
<clipPath id="clip0_8_757">
<rect width="66" height="66" fill="white" transform="matrix(1 0 0 -1 0 66)"/>
</clipPath>
</defs>
</svg>
