<svg width="66" height="66" viewBox="0 0 66 66" fill="none" xmlns="http://www.w3.org/2000/svg">
<path d="M43.3294 3.05835C43.1455 3.10127 39.105 4.55435 34.3473 6.28334L25.7023 9.42862L23.4338 9.66774C22.1892 9.79649 18.7803 10.1521 15.8618 10.4587C8.62707 11.2189 6.68962 11.4274 6.30949 11.5071C4.71539 11.832 3.50142 13.5794 3.13968 16.0809C3.05385 16.6756 3.04772 19.03 3.05998 38.3861L3.07837 60.029L3.21326 60.4276C3.60565 61.5802 4.53146 62.4999 5.68411 62.8984L6.08264 63.0333L31.0242 63.0517C52.9431 63.064 56.0148 63.0517 56.4072 62.972C57.6702 62.7084 58.7615 61.7274 59.1968 60.4582L59.3624 59.9677L59.3808 52.1382L59.393 44.3149L60.5457 44.2904C61.5573 44.272 61.729 44.2536 61.9742 44.1371C62.3605 43.9593 62.7406 43.6037 62.9368 43.2358L63.1024 42.9231V38.662V34.4008L62.9552 34.1127C62.7713 33.7387 62.4157 33.3769 62.0417 33.1991C61.778 33.0642 61.6616 33.052 60.5763 33.0336L59.393 33.009V25.4003C59.393 20.3911 59.3685 17.6505 59.3256 17.393C59.1907 16.5346 58.6328 15.5904 57.9583 15.0693C57.3697 14.6156 56.4562 14.26 55.8737 14.26H55.6714L55.6346 12.0037C55.6101 9.98043 55.5917 9.70452 55.4752 9.27534C55.0951 7.85291 54.0957 6.98229 52.5997 6.77383C52.1951 6.71252 51.8762 6.73092 50.2883 6.89645C49.2766 7.00068 48.3937 7.08652 48.3263 7.08652C48.2221 7.08652 48.1546 6.9455 47.9032 6.24042C47.7377 5.78058 47.5109 5.21652 47.3944 4.98967C46.7935 3.82475 45.5734 3.06448 44.2184 3.00317C43.8935 2.99091 43.5256 3.01543 43.3294 3.05835ZM44.9909 5.10616C45.6102 5.4495 45.6102 5.45563 47.2717 10.0233C48.1056 12.3103 48.7861 14.1987 48.7861 14.2232C48.7861 14.2416 47.4986 14.2538 45.929 14.2477L43.0719 14.2293L42.9247 13.8737C42.5446 12.9356 41.5207 11.783 40.6072 11.2618C39.6875 10.7346 38.8598 10.52 37.7807 10.52C35.9598 10.52 34.427 11.2741 33.2988 12.7333C33.0291 13.0889 32.5876 13.8737 32.5263 14.119L32.4895 14.26H25.2609C21.153 14.26 18.0752 14.2354 18.1304 14.2048C18.1794 14.1741 21.4534 12.9786 25.3958 11.5377C29.3442 10.1031 35.0646 8.01846 38.1179 6.90258L43.6666 4.8793L44.1632 4.8977C44.5802 4.91609 44.7089 4.94675 44.9909 5.10616ZM52.9247 8.78485C53.2435 8.95039 53.409 9.13433 53.5807 9.50833C53.7156 9.80875 53.7217 9.87006 53.7401 12.0344L53.7585 14.26H52.2932C51.1712 14.26 50.8155 14.2416 50.791 14.1803C50.3067 12.8927 48.9088 8.96878 48.9271 8.94426C48.9455 8.932 49.5464 8.85229 50.2699 8.77259C51.8394 8.60091 52.5691 8.60091 52.9247 8.78485ZM18.1917 12.157C18.1426 12.1754 16.8244 12.6597 15.261 13.2238L12.4223 14.26H9.36894C6.8613 14.26 6.26044 14.2784 5.97228 14.3519C5.77608 14.401 5.60441 14.4439 5.58601 14.4439C5.5247 14.4439 5.76382 14.0515 5.97228 13.8247C6.40146 13.3526 6.35854 13.3587 10.0066 12.9663C17.5908 12.1386 18.4676 12.0528 18.1917 12.157ZM38.5287 12.4574C39.3809 12.6291 40.1841 13.1318 40.7237 13.8185C40.8769 14.0086 40.9996 14.1864 40.9996 14.2109C40.9996 14.2416 39.5526 14.26 37.7807 14.26H34.5557L34.6293 14.119C34.758 13.8676 35.2363 13.3526 35.5367 13.1318C36.4441 12.4635 37.4619 12.2367 38.5287 12.4574ZM56.3336 16.2587C56.726 16.4427 57.1 16.7983 57.2962 17.1661L57.4617 17.4788L57.4801 25.247L57.4924 33.0213L49.7549 33.0336L42.0112 33.052L41.6617 33.2236C41.2325 33.4321 40.8585 33.8429 40.7114 34.2659C40.6072 34.5602 40.601 34.8913 40.601 38.6926V42.8005L40.7604 43.1377C40.9873 43.6282 41.2019 43.8428 41.6617 44.0696L42.0725 44.272L49.7794 44.2904L57.4924 44.3026V51.9666C57.4924 59.4834 57.4924 59.6305 57.3697 59.9555C57.2103 60.3847 56.9099 60.7219 56.5053 60.9487L56.1742 61.1327L31.2878 61.151L6.40146 61.1633L6.08877 61.0223C5.63506 60.8138 5.32238 60.5134 5.12005 60.0904L4.94837 59.7225V38.6865C4.94837 15.0815 4.89933 17.3501 5.42047 16.7737C5.72703 16.4304 6.04585 16.2403 6.43825 16.1606C6.57926 16.1361 17.7993 16.1177 31.3737 16.1238L56.0516 16.13L56.3336 16.2587ZM60.7909 35.0446C60.9013 35.112 61.0423 35.253 61.1098 35.3634C61.2262 35.5596 61.2324 35.6822 61.2324 38.6681V41.7705L61.0914 41.9789C61.0178 42.0954 60.8584 42.2364 60.7419 42.2916C60.5396 42.3958 59.9878 42.402 51.8578 42.402H43.1945L42.9554 42.2671C42.8021 42.1813 42.6734 42.0402 42.5937 41.8808C42.4772 41.6356 42.471 41.5007 42.471 38.6374C42.471 35.7558 42.4772 35.6454 42.5937 35.4063C42.6672 35.2714 42.8083 35.1059 42.9186 35.0446C43.1087 34.922 43.2865 34.922 51.8517 34.922C60.4599 34.922 60.5886 34.922 60.7909 35.0446Z" fill="#EE1D1D"/>
<path d="M7.23764 20.0234C7.13341 20.097 6.98626 20.2748 6.91269 20.428C6.74714 20.7591 6.79006 21.1025 7.01692 21.3784C7.30508 21.7156 7.40931 21.7401 8.70298 21.7401C9.77594 21.7401 9.90469 21.7278 10.0886 21.6175C10.4136 21.4213 10.5423 21.1577 10.5117 20.7407C10.4933 20.428 10.4626 20.3606 10.2664 20.1583L10.0396 19.9314L8.73364 19.913C7.50741 19.9008 7.42157 19.9069 7.23764 20.0234Z" fill="#EE1D1D"/>
<path d="M12.8505 20.0479C12.6237 20.2012 12.4275 20.5691 12.4275 20.8327C12.4275 21.0902 12.6666 21.4703 12.9119 21.6052C13.1326 21.734 13.2307 21.7401 14.3343 21.7401C15.6647 21.7401 15.7935 21.7033 16.0449 21.2987C16.3024 20.8756 16.1491 20.2809 15.7261 20.0234C15.5421 19.913 15.4134 19.9008 14.2975 19.9008C13.0958 19.9008 13.0651 19.9069 12.8505 20.0479Z" fill="#EE1D1D"/>
<path d="M18.4994 20.0357C18.0825 20.3238 17.9598 20.8388 18.2112 21.2741C18.4503 21.6972 18.6097 21.7401 19.9402 21.7401C21.2155 21.7401 21.3994 21.6972 21.6447 21.36C21.8286 21.1147 21.8531 20.5997 21.6937 20.3422C21.4301 19.9314 21.3074 19.9008 19.9341 19.9008C18.7569 19.9008 18.6894 19.9069 18.4994 20.0357Z" fill="#EE1D1D"/>
<path d="M24.1336 20.0418C23.545 20.4342 23.6002 21.3416 24.2255 21.642C24.3972 21.7217 24.6486 21.7401 25.5805 21.7401C26.5125 21.7401 26.7638 21.7217 26.9355 21.642C27.5609 21.3416 27.6161 20.4342 27.0275 20.0418C26.8252 19.9069 26.7638 19.9008 25.5805 19.9008C24.3972 19.9008 24.3359 19.9069 24.1336 20.0418Z" fill="#EE1D1D"/>
<path d="M29.7916 20.0234C29.4727 20.2196 29.3378 20.4894 29.3685 20.8695C29.393 21.2435 29.5402 21.4765 29.8467 21.6298C30.0245 21.7217 30.233 21.7401 31.2201 21.7401C32.5506 21.7401 32.71 21.6972 32.9491 21.2741C33.2005 20.8388 33.0779 20.3238 32.6609 20.0357C32.4709 19.9069 32.4034 19.9008 31.2262 19.9008C30.1042 19.9008 29.9755 19.913 29.7916 20.0234Z" fill="#EE1D1D"/>
<path d="M35.4312 20.0234C35.1553 20.1951 34.9897 20.4894 34.9897 20.8204C34.9897 21.1515 35.1553 21.4458 35.4312 21.6175C35.6151 21.7278 35.7439 21.7401 36.8291 21.7401C37.8775 21.7401 38.0553 21.7278 38.2393 21.6236C38.4722 21.501 38.7298 21.0779 38.7298 20.8266C38.7236 20.5568 38.5152 20.1705 38.2883 20.0357C38.086 19.9069 37.994 19.9008 36.8536 19.9008C35.7439 19.9008 35.6151 19.913 35.4312 20.0234Z" fill="#EE1D1D"/>
<path d="M41.0848 20.0173C40.7599 20.2135 40.6311 20.4342 40.6311 20.7837C40.6311 21.1515 40.7844 21.4397 41.0725 21.6175C41.2565 21.7278 41.3852 21.7401 42.4766 21.7401C43.6231 21.7401 43.6906 21.734 43.8806 21.5991C44.2056 21.3784 44.3343 21.1638 44.3343 20.8327C44.3343 20.4894 44.1749 20.1889 43.9051 20.0173C43.7335 19.913 43.5925 19.9008 42.495 19.9008C41.4098 19.9008 41.2565 19.913 41.0848 20.0173Z" fill="#EE1D1D"/>
<path d="M46.7919 19.9559C46.2217 20.1889 46.0562 21.0289 46.4976 21.4458C46.8042 21.7278 46.8777 21.7401 48.1285 21.7401C49.2628 21.7401 49.3302 21.734 49.5203 21.5991C49.8513 21.3784 49.974 21.1638 49.974 20.8266C49.974 20.6058 49.9311 20.4648 49.8207 20.3054C49.5693 19.9314 49.4344 19.9008 48.0978 19.9069C47.4479 19.9069 46.8594 19.9314 46.7919 19.9559Z" fill="#EE1D1D"/>
<path d="M52.2984 20.0234C52.1942 20.097 52.0471 20.2748 51.9735 20.428C51.8079 20.7591 51.8509 21.1025 52.0777 21.3784C52.3659 21.7156 52.4701 21.7401 53.7638 21.7401C54.8367 21.7401 54.9655 21.7278 55.1494 21.6175C55.4437 21.4397 55.5909 21.1577 55.5909 20.7714C55.5909 20.4771 55.5663 20.4219 55.3517 20.1889L55.1065 19.9314L53.8006 19.913C52.5682 19.9008 52.4824 19.9069 52.2984 20.0234Z" fill="#EE1D1D"/>
<path d="M7.2098 55.731C6.77449 56.0314 6.68252 56.6629 7.0136 57.0614C7.30177 57.3986 7.406 57.4232 8.66901 57.4232C9.64387 57.4232 9.85233 57.4048 10.0363 57.3128C10.3551 57.1534 10.5268 56.8591 10.5268 56.4544C10.5268 56.1418 10.5084 56.105 10.257 55.8536L9.99334 55.5838H8.71193C7.44891 55.5838 7.42439 55.5838 7.2098 55.731Z" fill="#EE1D1D"/>
<path d="M12.8693 55.7064C12.7467 55.7861 12.6179 55.9394 12.5382 56.1172C12.3359 56.5771 12.4646 56.9756 12.9184 57.2821C13.1084 57.417 13.1759 57.4232 14.2917 57.4232C15.285 57.4232 15.4934 57.4048 15.6774 57.3128C16.266 57.0185 16.3395 56.246 15.8307 55.7678C15.6712 55.6145 15.659 55.6145 14.3714 55.5961C13.1513 55.5838 13.0594 55.59 12.8693 55.7064Z" fill="#EE1D1D"/>
<path d="M18.4921 55.7248C18.0875 55.9946 17.9587 56.5096 18.1978 56.9327C18.4431 57.368 18.6331 57.4232 19.9391 57.4232C20.871 57.4232 21.1224 57.4048 21.294 57.3251C21.9378 57.0185 21.9807 56.0804 21.3676 55.7064C21.1837 55.5961 21.0549 55.5838 19.9329 55.5838C18.7558 55.5838 18.6883 55.59 18.4921 55.7248Z" fill="#EE1D1D"/>
<path d="M24.1336 55.725C23.545 56.1174 23.6002 57.0248 24.2255 57.3252C24.5321 57.4723 26.629 57.4723 26.9355 57.3252C27.5609 57.0248 27.6161 56.1174 27.0275 55.725C26.8252 55.5901 26.7638 55.5839 25.5805 55.5839C24.3972 55.5839 24.3359 55.5901 24.1336 55.725Z" fill="#EE1D1D"/>
<path d="M29.7908 55.7064C29.1777 56.0804 29.2206 57.0185 29.8644 57.3251C30.036 57.4048 30.2874 57.4232 31.2132 57.4232C32.5314 57.4232 32.7092 57.3741 32.9545 56.9449C33.1997 56.5096 33.0771 56.0007 32.6663 55.7248C32.4701 55.59 32.4027 55.5838 31.2255 55.5838C30.1035 55.5838 29.9747 55.5961 29.7908 55.7064Z" fill="#EE1D1D"/>
<path d="M35.4324 55.7064C34.8193 56.0804 34.85 57.0001 35.4815 57.3128C35.6654 57.4048 35.8739 57.4232 36.8549 57.4232C37.9278 57.4232 38.0259 57.4109 38.2466 57.2883C38.5103 57.1411 38.731 56.7671 38.731 56.4667C38.731 56.2153 38.5409 55.8842 38.3018 55.7187C38.1117 55.59 38.0443 55.5838 36.8671 55.5838C35.7451 55.5838 35.6164 55.5961 35.4324 55.7064Z" fill="#EE1D1D"/>
<path d="M40.9009 55.8536C40.6495 56.105 40.6311 56.1418 40.6311 56.4544C40.6311 56.8591 40.8028 57.1534 41.1216 57.3128C41.3055 57.4048 41.514 57.4232 42.4888 57.4232C43.7519 57.4232 43.8561 57.3986 44.1442 57.0614C44.4815 56.6568 44.3772 55.9946 43.9297 55.7187C43.7273 55.59 43.6354 55.5838 42.4398 55.5838H41.1645L40.9009 55.8536Z" fill="#EE1D1D"/>
<path d="M46.6739 55.7003C46.2263 56.0007 46.1037 56.6138 46.4164 57.0185C46.7045 57.3986 46.8026 57.4232 48.127 57.4232C49.2612 57.4232 49.3287 57.417 49.5187 57.2821C50.1012 56.8897 50.1135 56.0559 49.5433 55.7003C49.3716 55.5961 49.2306 55.5838 48.1025 55.5838C46.9743 55.5838 46.8333 55.5961 46.6739 55.7003Z" fill="#EE1D1D"/>
<path d="M52.2706 55.731C51.8353 56.0314 51.7433 56.6629 52.0744 57.0614C52.3626 57.3986 52.4668 57.4232 53.7298 57.4232C54.7047 57.4232 54.9131 57.4048 55.097 57.3128C55.4159 57.1534 55.5875 56.8591 55.5875 56.4544C55.5875 56.1418 55.5691 56.105 55.3178 55.8536L55.0541 55.5838H53.7727C52.5097 55.5838 52.4852 55.5838 52.2706 55.731Z" fill="#EE1D1D"/>
<path d="M45.8235 36.8225C45.2226 36.9758 44.6463 37.4969 44.4562 38.061C44.2294 38.7477 44.4562 39.5692 45.0142 40.0597C45.7438 40.7035 46.9577 40.6422 47.6015 39.931C47.9571 39.5386 48.0797 39.1952 48.0736 38.6312C48.0736 38.0426 47.9081 37.6563 47.4973 37.2885C47.0374 36.8715 46.3691 36.6876 45.8235 36.8225Z" fill="#EE1D1D"/>
</svg>
