<svg width="66" height="66" viewBox="0 0 66 66" fill="none" xmlns="http://www.w3.org/2000/svg">
<g clip-path="url(#clip0_8_772)">
<path d="M28.4524 0.111351C27.7474 0.303612 27.1706 0.730873 26.4763 1.56403C23.8914 4.67233 21.1997 6.37068 17.0766 7.50291C14.2461 8.27198 11.8748 8.56038 7.33516 8.66719C4.06663 8.75264 3.82096 8.78469 3.24416 9.34012C3.07326 9.50034 2.82759 9.82079 2.71009 10.0558L2.4751 10.483V22.4463C2.48578 35.3388 2.48578 35.4563 3.06258 38.3403C4.35503 44.7385 7.80514 50.8162 12.537 55.0354C13.3381 55.7403 21.9474 62.491 24.9061 64.7235C27.1065 66.4004 30.343 66.6568 32.9066 65.3857C33.3552 65.1614 34.7544 64.168 36.2712 62.9824C37.7132 61.8608 38.8989 60.9529 38.9095 60.9529C38.9309 60.9529 38.8134 61.2306 38.6639 61.5617C37.9268 63.1746 38.6211 65.0439 40.2554 65.8557L40.907 66.1868H50.8728C60.6036 66.1868 60.8599 66.1868 61.4154 65.9732C62.9855 65.3857 63.8721 63.5058 63.3594 61.8608C63.1564 61.2199 62.4087 60.28 61.8747 60.0022L61.5969 59.8527V47.9856V36.1185L62.0242 35.8728C62.5796 35.5631 63.1564 34.7833 63.3701 34.0463C63.8721 32.38 62.9642 30.5962 61.3192 29.9767C60.7531 29.7737 60.5074 29.7631 54.8142 29.7631H48.886V23.6426C48.886 17.8746 48.8753 17.5114 48.6831 17.0842C48.3413 16.3365 47.9033 16.1335 46.0554 15.8772C40.469 15.0867 35.9187 13.6447 31.9666 11.391C29.7235 10.1092 29.1894 10.1199 26.7434 11.4764C24.4362 12.7475 23.0476 13.3457 20.5802 14.1468C18.1234 14.9372 15.3569 15.5567 12.5477 15.9199C11.0843 16.1122 10.7532 16.251 10.3473 16.8599L10.0589 17.3085V21.7627C10.0589 26.1314 10.0589 26.2382 10.2832 26.4518C10.4007 26.5693 10.6785 26.6975 10.8921 26.7402C11.2232 26.7936 11.3193 26.7509 11.6077 26.4732L11.9282 26.1527V22.0404V17.9387L13.242 17.7571C18.9352 16.956 23.8166 15.3858 27.8756 13.0573C29.4458 12.1493 29.4671 12.16 31.2937 13.1961C35.2244 15.4499 41.0138 17.2337 46.3545 17.8639L46.9633 17.928V23.8455V29.7631H44.1007C40.8322 29.7631 40.4797 29.8271 39.6038 30.5108C38.8348 31.1196 38.3861 32.0703 38.3861 33.1063C38.3861 34.2813 38.9736 35.3495 39.9777 35.969L40.3409 36.1933V46.7893V57.396L36.6451 60.2693C34.6049 61.8501 32.6716 63.3028 32.3404 63.4951C30.6635 64.4671 28.5592 64.5419 26.8395 63.6873C26.1772 63.3562 15.2715 54.8965 13.8508 53.6147C10.9134 50.9551 8.32853 47.3981 6.85449 43.9694C5.42318 40.6581 4.68616 37.5712 4.45117 33.9181C4.29094 31.408 4.34435 10.921 4.51526 10.7501C4.59003 10.6753 5.88248 10.6005 8.14695 10.5364C13.3168 10.3869 15.8162 10.0024 19.245 8.82741C22.7699 7.60973 25.4936 5.7832 27.5658 3.23033C28.4097 2.20491 28.8476 1.88447 29.4244 1.88447C30.0867 1.88447 30.3857 2.0981 31.3684 3.27306C32.5541 4.69369 33.3445 5.42003 34.7758 6.38136C36.7626 7.71654 39.0911 8.74196 41.6653 9.41489C44.7523 10.216 46.3545 10.4083 50.7553 10.5364C53.8849 10.6326 54.2908 10.6646 54.4083 10.8248C54.5151 10.9637 54.5472 12.6941 54.5472 18.6009V26.2061L54.7929 26.4304C55.156 26.7723 55.8183 26.7509 56.1601 26.3877L56.4164 26.11V18.3019C56.4164 10.4937 56.4164 10.483 56.1814 10.0558C56.0639 9.82079 55.8183 9.50034 55.6474 9.34012C55.0813 8.79537 54.8142 8.75264 51.7166 8.67787C47.3052 8.57106 45.0514 8.3147 42.3169 7.60973C38.0443 6.49886 34.7865 4.56551 32.7036 1.88447C32.0841 1.08336 31.4432 0.517242 30.845 0.250206C30.2362 -0.0168304 29.136 -0.0809174 28.4524 0.111351ZM60.924 31.8993C61.9174 32.4975 61.7678 33.9502 60.6677 34.4202C60.3793 34.5483 58.6595 34.5697 51.0009 34.5697C44.8911 34.5697 41.5372 34.527 41.2808 34.4629C40.8536 34.3347 40.4156 33.8647 40.3088 33.3841C40.1699 32.8286 40.5972 32.0168 41.142 31.7925C41.2595 31.7391 45.6816 31.6964 50.9689 31.6964C60.3258 31.6857 60.5929 31.6964 60.924 31.8993ZM57.9439 38.2762C57.8798 40.2202 57.7196 41.1495 57.2175 42.3672C56.4058 44.3326 54.7181 46.0843 53.0731 46.6611C52.742 46.7786 52.3682 46.9388 52.24 47.0136C51.738 47.334 51.6418 48.3167 52.0904 48.7226C52.1973 48.8188 52.6032 49.0217 52.9877 49.1606C55.1133 49.9296 56.801 51.9271 57.6021 54.6188C57.8584 55.4733 57.8798 55.7403 57.9012 57.5348L57.9118 59.5109L50.9475 59.5429L43.9725 59.5643V57.8019C43.9725 55.8151 44.1221 54.8538 44.6241 53.6041C44.9766 52.7175 45.6495 51.6387 46.3118 50.891C46.8886 50.2394 48.1917 49.3742 48.9501 49.1285C49.7726 48.8722 50.061 48.5624 50.061 47.9322C50.061 47.3127 49.7405 46.9709 48.9394 46.7038C46.707 45.9775 44.7309 43.4887 44.1328 40.6581C44.026 40.1668 43.9725 39.3016 43.9725 38.1907V36.4924H50.9796H57.9973L57.9439 38.2762ZM59.6636 47.9429V54.7042L59.3645 53.7963C58.9373 52.5146 58.6809 51.9698 58.0293 50.9657C57.3884 49.983 56.2242 48.7654 55.4765 48.2847C55.1987 48.1138 54.9744 47.9536 54.9744 47.9215C54.9744 47.8895 55.1774 47.7506 55.4231 47.6011C56.1387 47.1631 57.3778 45.8814 58.0293 44.8773C58.6382 43.9373 59.2363 42.6235 59.482 41.6942C59.5461 41.4165 59.6209 41.1922 59.6422 41.1922C59.6636 41.1922 59.6743 44.2364 59.6636 47.9429ZM43.1287 43.6596L43.353 44.0976L42.9578 44.6744C42.2421 45.6998 42.2635 45.7318 42.2635 43.4246V41.3524L42.584 42.2924C42.7549 42.8051 43.0005 43.4246 43.1287 43.6596ZM45.2009 46.5329C45.5534 46.8961 46.0661 47.334 46.3545 47.5156C46.6322 47.6865 46.8565 47.8788 46.8565 47.9215C46.8565 47.9643 46.6536 48.1352 46.4079 48.2954C44.795 49.3635 43.2248 51.5532 42.5199 53.7322L42.2742 54.4906V51.4998L42.2635 48.509L42.9685 47.7079C43.353 47.27 43.8444 46.6825 44.058 46.3941C44.2716 46.1164 44.4746 45.892 44.5066 45.892C44.5387 45.892 44.8484 46.1804 45.2009 46.5329ZM60.8492 61.6258C61.2445 61.8181 61.5969 62.4163 61.5969 62.8756C61.5969 63.3349 61.2445 63.933 60.8492 64.1253C60.6356 64.2321 58.4352 64.2641 50.9155 64.2641C41.5799 64.2641 41.2381 64.2535 40.9176 64.0612C40.4477 63.7728 40.1699 63.0251 40.3302 62.5338C40.4797 62.1065 40.6292 61.9142 40.9817 61.6686C41.2274 61.4977 41.9751 61.487 50.9155 61.487C58.4352 61.487 60.6356 61.519 60.8492 61.6258Z" fill="#EE1D1D"/>
<path d="M28.9545 5.34569C27.6621 5.91181 28.0359 7.86652 29.4459 7.86652C30.1936 7.86652 30.7276 7.3004 30.7276 6.49929C30.7276 5.99726 30.4179 5.55932 29.9158 5.34569C29.4779 5.16411 29.3818 5.16411 28.9545 5.34569Z" fill="#EE1D1D"/>
<path d="M7.26025 13.2599C6.61936 13.5377 6.29892 14.4029 6.61936 15.0224C6.80095 15.3855 7.40979 15.7701 7.80501 15.7701C8.55271 15.7701 9.247 14.9476 9.08678 14.2426C8.97997 13.7513 8.76634 13.4629 8.34976 13.2706C7.9225 13.0677 7.70887 13.057 7.26025 13.2599Z" fill="#EE1D1D"/>
<path d="M50.4332 13.2488C49.9526 13.4625 49.7176 13.7829 49.6642 14.2956C49.6108 14.8511 49.7817 15.2035 50.2623 15.524C50.9353 15.9833 51.7684 15.7376 52.1316 14.9792C52.4414 14.3277 52.1636 13.58 51.5014 13.2702C51.0741 13.0673 50.8605 13.0566 50.4332 13.2488Z" fill="#EE1D1D"/>
<path d="M36.6025 19.8612C36.3248 19.9359 35.9402 20.1068 35.7373 20.235C35.4916 20.3846 33.5369 22.7879 30.2363 26.975C27.4271 30.564 25.0772 33.48 25.0131 33.4586C24.9597 33.448 23.8274 32.0167 22.4923 30.2863C20.2171 27.3168 20.0462 27.1245 19.4587 26.8255C18.9353 26.5584 18.711 26.505 18.1342 26.5157C17.3011 26.5264 16.8097 26.7186 16.2009 27.2634C15.5066 27.8936 15.293 28.385 15.293 29.389C15.293 30.0192 15.3464 30.3397 15.4959 30.6174C15.6989 30.9912 21.8087 39.045 22.6845 40.0918C23.3254 40.8609 24.0304 41.192 25.0024 41.192C25.7822 41.192 26.3483 40.9998 26.8503 40.5832C27.1921 40.2948 39.6787 24.4435 39.9458 23.9415C40.2769 23.3326 40.2769 21.9868 39.9458 21.3672C39.6787 20.8545 38.9631 20.1923 38.4824 19.9893C37.9483 19.765 37.1365 19.7116 36.6025 19.8612ZM38.0765 22.0295C38.5892 22.617 38.5251 22.7451 35.9723 25.9923C26.5299 37.9983 25.6433 39.0985 25.3335 39.2266C24.6392 39.5043 24.5965 39.4616 20.7405 34.4307C17.6322 30.361 17.1622 29.6988 17.1622 29.3783C17.1622 28.7054 17.9206 28.2141 18.5188 28.5025C18.7004 28.5879 19.8326 29.9765 21.5096 32.1662C22.9943 34.1102 24.3081 35.7765 24.4363 35.8727C24.7033 36.097 25.2694 36.1183 25.5365 35.9261C25.6433 35.8513 28.1855 32.6682 31.1977 28.8549C34.1991 25.031 36.7841 21.8479 36.9229 21.7731C37.2861 21.5916 37.7774 21.6984 38.0765 22.0295Z" fill="#EE1D1D"/>
<path d="M10.5382 29.5816C10.0255 29.838 9.98276 30.0623 10.0468 32.3802C10.1109 34.7835 10.2818 36.1294 10.8052 38.1482C11.6063 41.2671 13.0911 44.2259 15.1312 46.8001C16.5305 48.5626 17.8443 49.7055 23.2384 53.8926C26.1224 56.1357 28.6005 58.0157 28.7501 58.0691C29.156 58.2186 29.8289 58.1972 30.2241 58.0263C30.4164 57.9409 32.2429 56.5523 34.2937 54.9501C37.0816 52.7711 38.0536 51.9593 38.1284 51.7243C38.3313 51.0941 37.6477 50.3571 37.0068 50.528C36.868 50.56 35.1269 51.8631 33.1295 53.4226C31.132 54.9714 29.4657 56.2425 29.423 56.2212C29.3696 56.2105 27.1692 54.5121 24.5095 52.4613C19.6174 48.6694 17.9511 47.2274 16.7014 45.6786C14.8535 43.3927 13.3901 40.5088 12.6638 37.7209C12.1725 35.8303 12.0229 34.666 11.9588 32.2734L11.8947 30.0409L11.5957 29.7418C11.2752 29.4214 10.9548 29.368 10.5382 29.5816Z" fill="#EE1D1D"/>
<path d="M28.9529 59.6719C28.2052 59.971 27.9168 61.0711 28.4295 61.68C29.0063 62.3636 29.8288 62.3957 30.3949 61.7441C30.9717 61.1032 30.7901 60.0885 30.0424 59.736C29.6472 59.5544 29.3054 59.533 28.9529 59.6719Z" fill="#EE1D1D"/>
</g>
<defs>
<clipPath id="clip0_8_772">
<rect width="66" height="66" fill="white" transform="matrix(1 0 0 -1 0 66)"/>
</clipPath>
</defs>
</svg>
