<svg width="20" height="20" viewBox="0 0 20 20" fill="none" xmlns="http://www.w3.org/2000/svg">
<path d="M16.7426 15.1667C17.6212 15.1667 18.3335 15.8755 18.3335 16.75C18.3335 17.6245 17.6212 18.3333 16.7426 18.3333C15.864 18.3333 15.1517 17.6245 15.1517 16.75C15.1517 15.8755 15.864 15.1667 16.7426 15.1667ZM16.7426 15.1667H4.47145C4.35563 15.1667 4.27863 15.0474 4.32672 14.9426L5.50993 12.3625C5.52175 12.3367 5.5264 12.3083 5.52341 12.2801L4.49981 2.64169C4.49126 2.56114 4.42299 2.5 4.3416 2.5H0.833496M18.1744 4.875H4.95935C4.84054 4.875 4.74792 4.97797 4.76047 5.09612L5.47394 11.8143C5.48627 11.9303 5.59494 12.0112 5.70965 11.9898L18.2037 9.64922C18.279 9.63518 18.3335 9.56979 18.3335 9.49359V5.03333C18.3335 4.94589 18.2623 4.875 18.1744 4.875ZM4.01531 18.3333C3.13668 18.3333 2.42441 17.6245 2.42441 16.75C2.42441 15.8755 3.13668 15.1667 4.01531 15.1667C4.89395 15.1667 5.60622 15.8755 5.60622 16.75C5.60622 17.6245 4.89395 18.3333 4.01531 18.3333Z" stroke="white" stroke-width="1.6" stroke-linecap="round" stroke-linejoin="round"/>
</svg>
