<svg width="14" height="14" viewBox="0 0 14 14" fill="none" xmlns="http://www.w3.org/2000/svg">
<path d="M6.19727 8.14258C6.60892 8.34723 7.09136 8.35209 7.50684 8.15527L12.3955 5.83887V9.375C12.3955 10.3178 12.3954 10.7891 12.1025 11.082C11.8096 11.3748 11.3381 11.375 10.3955 11.375H3.3125C2.36969 11.375 1.89836 11.3749 1.60547 11.082C1.31258 10.7891 1.3125 10.3178 1.3125 9.375V5.71289L6.19727 8.14258ZM10.3955 3.0625C11.3381 3.0625 11.8096 3.06274 12.1025 3.35547C12.3592 3.61209 12.3886 4.00569 12.3926 4.7334L7.0791 7.25195C6.94077 7.31748 6.7797 7.31603 6.64258 7.24805L1.31543 4.59863C1.32317 3.9562 1.36516 3.59578 1.60547 3.35547C1.89836 3.06258 2.36969 3.0625 3.3125 3.0625H10.3955Z" fill="white"/>
</svg>
