<svg width="20" height="20" viewBox="0 0 20 20" fill="none" xmlns="http://www.w3.org/2000/svg">
<rect width="20" height="20" rx="2" fill="url(#paint0_radial_2101_7135)"/>
<path d="M10 4.26506C11.8554 4.26506 12.1084 4.26506 12.8675 4.26506C13.5422 4.26506 13.8795 4.43374 14.1325 4.51807C14.4699 4.68675 14.7229 4.77109 14.9759 5.0241C15.2289 5.27711 15.3976 5.53012 15.4819 5.86747C15.5663 6.12048 15.6506 6.45783 15.7349 7.13253C15.7349 7.89157 15.7349 8.06024 15.7349 10C15.7349 11.9398 15.7349 12.1084 15.7349 12.8675C15.7349 13.5422 15.5663 13.8795 15.4819 14.1325C15.3133 14.4699 15.2289 14.7229 14.9759 14.9759C14.7229 15.2289 14.4699 15.3976 14.1325 15.4819C13.8795 15.5663 13.5422 15.6506 12.8675 15.7349C12.1084 15.7349 11.9398 15.7349 10 15.7349C8.06024 15.7349 7.89157 15.7349 7.13253 15.7349C6.45783 15.7349 6.12048 15.5663 5.86747 15.4819C5.53012 15.3133 5.27711 15.2289 5.0241 14.9759C4.77109 14.7229 4.60241 14.4699 4.51807 14.1325C4.43374 13.8795 4.3494 13.5422 4.26506 12.8675C4.26506 12.1084 4.26506 11.9398 4.26506 10C4.26506 8.06024 4.26506 7.89157 4.26506 7.13253C4.26506 6.45783 4.43374 6.12048 4.51807 5.86747C4.68675 5.53012 4.77109 5.27711 5.0241 5.0241C5.27711 4.77109 5.53012 4.60241 5.86747 4.51807C6.12048 4.43374 6.45783 4.3494 7.13253 4.26506C7.89157 4.26506 8.14458 4.26506 10 4.26506ZM10 3C8.06024 3 7.89157 3 7.13253 3C6.37349 3 5.86747 3.16868 5.44578 3.33735C5.0241 3.50602 4.60241 3.75904 4.18072 4.18072C3.75904 4.60241 3.59036 4.93976 3.33735 5.44578C3.16868 5.86747 3.08434 6.37349 3 7.13253C3 7.89157 3 8.14458 3 10C3 11.9398 3 12.1084 3 12.8675C3 13.6265 3.16868 14.1325 3.33735 14.5542C3.50602 14.9759 3.75904 15.3976 4.18072 15.8193C4.60241 16.241 4.93976 16.4096 5.44578 16.6627C5.86747 16.8313 6.37349 16.9157 7.13253 17C7.89157 17 8.14458 17 10 17C11.8554 17 12.1084 17 12.8675 17C13.6265 17 14.1325 16.8313 14.5542 16.6627C14.9759 16.494 15.3976 16.241 15.8193 15.8193C16.241 15.3976 16.4096 15.0602 16.6627 14.5542C16.8313 14.1325 16.9157 13.6265 17 12.8675C17 12.1084 17 11.8554 17 10C17 8.14458 17 7.89157 17 7.13253C17 6.37349 16.8313 5.86747 16.6627 5.44578C16.494 5.0241 16.241 4.60241 15.8193 4.18072C15.3976 3.75904 15.0602 3.59036 14.5542 3.33735C14.1325 3.16868 13.6265 3.08434 12.8675 3C12.1084 3 11.9398 3 10 3Z" fill="white"/>
<path d="M10 6.37349C7.9759 6.37349 6.37349 7.9759 6.37349 10C6.37349 12.0241 7.9759 13.6265 10 13.6265C12.0241 13.6265 13.6265 12.0241 13.6265 10C13.6265 7.9759 12.0241 6.37349 10 6.37349ZM10 12.3614C8.73494 12.3614 7.63855 11.3494 7.63855 10C7.63855 8.73494 8.6506 7.63855 10 7.63855C11.2651 7.63855 12.3614 8.6506 12.3614 10C12.3614 11.2651 11.2651 12.3614 10 12.3614Z" fill="white"/>
<path d="M13.7108 7.13253C14.1766 7.13253 14.5542 6.75494 14.5542 6.28916C14.5542 5.82338 14.1766 5.44578 13.7108 5.44578C13.2451 5.44578 12.8675 5.82338 12.8675 6.28916C12.8675 6.75494 13.2451 7.13253 13.7108 7.13253Z" fill="white"/>
<defs>
<radialGradient id="paint0_radial_2101_7135" cx="0" cy="0" r="1" gradientUnits="userSpaceOnUse" gradientTransform="translate(20.4023 0.40625) scale(46.1859)">
<stop stop-color="#F9ED32"/>
<stop offset="0.36" stop-color="#EE2A7B"/>
<stop offset="0.44" stop-color="#D22A8A"/>
<stop offset="0.6" stop-color="#8B2AB2"/>
<stop offset="0.83" stop-color="#1B2AF0"/>
<stop offset="0.88" stop-color="#002AFF"/>
</radialGradient>
</defs>
</svg>
