<svg width="14" height="14" viewBox="0 0 14 14" fill="none" xmlns="http://www.w3.org/2000/svg">
<path d="M7 0C5.67392 0 4.40215 0.540756 3.46447 1.50331C2.52678 2.46586 2 3.77136 2 5.13261C2 7.84356 6.45455 13.5781 6.64545 13.8254C6.68805 13.8799 6.74202 13.9239 6.80338 13.9541C6.86475 13.9843 6.93194 14 7 14C7.06806 14 7.13525 13.9843 7.19662 13.9541C7.25798 13.9239 7.31195 13.8799 7.35455 13.8254C7.54545 13.5781 12 7.84356 12 5.13261C12 3.77136 11.4732 2.46586 10.5355 1.50331C9.59785 0.540756 8.32608 0 7 0ZM7 6.53241C6.6404 6.53241 6.28887 6.42295 5.98987 6.21787C5.69087 6.01278 5.45783 5.72129 5.32022 5.38025C5.18261 5.03921 5.1466 4.66394 5.21675 4.30189C5.28691 3.93985 5.46007 3.60728 5.71435 3.34626C5.96863 3.08524 6.2926 2.90748 6.64529 2.83547C6.99798 2.76345 7.36356 2.80041 7.69579 2.94168C8.02802 3.08294 8.31198 3.32216 8.51176 3.62909C8.71155 3.93602 8.81818 4.29687 8.81818 4.66601C8.81818 5.16101 8.62662 5.63574 8.28565 5.98576C7.94467 6.33578 7.48221 6.53241 7 6.53241Z" fill="white"/>
</svg>
