<svg width="14" height="14" viewBox="0 0 14 14" fill="none" xmlns="http://www.w3.org/2000/svg">
<path d="M7 0C10.8661 0 14 3.1339 14 7C14 10.8661 10.8661 14 7 14C3.1339 14 0 10.8661 0 7C0 3.1339 3.1339 0 7 0ZM6.349 3.9067C6.21941 3.9067 6.09514 3.95818 6.00351 4.04981C5.91188 4.14144 5.8604 4.26572 5.8604 4.3953V8.302C5.8604 8.5722 6.0788 8.7906 6.349 8.7906H10.2557C10.3214 8.79309 10.3869 8.7823 10.4483 8.75888C10.5097 8.73547 10.5657 8.6999 10.6131 8.65432C10.6604 8.60874 10.6981 8.55407 10.7238 8.49359C10.7495 8.43312 10.7628 8.36807 10.7628 8.30235C10.7628 8.23663 10.7495 8.17158 10.7238 8.11111C10.6981 8.05063 10.6604 7.99596 10.6131 7.95038C10.5657 7.9048 10.5097 7.86923 10.4483 7.84582C10.3869 7.8224 10.3214 7.81161 10.2557 7.8141H6.8369V4.3953C6.8369 4.26584 6.78552 4.14166 6.69404 4.05006C6.60256 3.95844 6.47846 3.90689 6.349 3.9067Z" fill="#F9F9F9"/>
</svg>
