<svg width="20" height="20" viewBox="0 0 20 20" fill="none" xmlns="http://www.w3.org/2000/svg">
<rect width="20" height="20" rx="2" fill="#605EB3"/>
<path fill-rule="evenodd" clip-rule="evenodd" d="M10.0001 4.22519C8.76264 4.22519 6.83434 4.33904 5.65954 5.41209C4.82904 6.23901 4.50014 7.39896 4.50014 8.90019L4.50007 8.99352C4.49997 9.09266 4.49986 9.19953 4.50069 9.31269C4.49986 9.42564 4.49997 9.53245 4.50007 9.63158L4.50014 9.72491C4.50014 11.2261 4.82904 12.3861 5.65954 13.213C6.10669 13.6214 6.66439 13.8901 7.25014 14.0672V15.3283C7.25014 15.7672 7.53861 15.7752 7.59141 15.7752H7.59389C7.72974 15.7746 7.84716 15.7081 7.96486 15.6036C8.00914 15.5643 8.52036 14.9945 9.07641 14.3713C9.40751 14.3925 9.72211 14.4002 9.99986 14.4002C11.2374 14.4002 13.1654 14.2861 14.3405 13.213C15.1707 12.3864 15.4999 11.2261 15.4999 9.72491L15.4999 9.63155C15.5 9.53242 15.5001 9.42556 15.4993 9.31241C15.5001 9.19929 15.5 9.09262 15.4999 8.99346L15.4999 8.89991C15.4999 7.39869 15.171 6.23874 14.3405 5.41181C13.1657 4.33904 11.2376 4.22519 10.0001 4.22519ZM11.7307 10.4715C12.1526 10.7248 12.2936 10.8026 12.5992 11.06C12.7026 11.1472 12.7499 11.2465 12.7501 11.3504C12.7504 11.5264 12.6632 11.7569 12.5469 11.9131C12.3717 12.1479 12.1333 12.3938 11.8363 12.4592C11.7926 12.4689 11.7489 12.4738 11.7051 12.4752C11.3988 12.484 11.0886 12.3646 10.8251 12.2348C10.1984 11.926 9.59176 11.5174 9.05001 11.0727C8.87676 10.9302 8.71561 10.7754 8.55996 10.6154C8.39964 10.4597 8.24481 10.2986 8.10264 10.1253C7.65796 9.58356 7.24931 8.97691 6.94049 8.35019C6.80931 8.08426 6.68776 7.77021 6.70041 7.46084C6.70206 7.42014 6.70729 7.37944 6.71609 7.33901C6.78181 7.04201 7.02739 6.80359 7.26224 6.62841C7.41844 6.51209 7.64916 6.42491 7.82489 6.42519C7.92884 6.42546 8.02811 6.47276 8.11529 6.57616C8.37296 6.88141 8.45051 7.02249 8.70379 7.44461C8.80911 7.62034 8.90014 7.88406 8.90014 8.02459C8.90014 8.12056 8.82259 8.23551 8.75219 8.30564C8.57179 8.48631 8.35014 8.54956 8.35014 8.86581C8.35014 9.17519 8.66501 9.71556 9.07201 10.1033C9.45976 10.5103 10.0001 10.8252 10.3095 10.8252C10.6258 10.8252 10.6849 10.5994 10.8653 10.419C10.9357 10.3486 11.0506 10.2752 11.1466 10.2752C11.2871 10.2752 11.555 10.3662 11.7307 10.4715ZM12.4751 9.45019C12.4751 9.60199 12.5983 9.72519 12.7501 9.72519C12.9019 9.72519 13.0251 9.60199 13.0251 9.45019V9.17519C13.0251 7.50731 11.668 6.15019 10.0001 6.15019C9.84834 6.15019 9.72514 6.27339 9.72514 6.42519C9.72514 6.57699 9.84834 6.70019 10.0001 6.70019C11.3647 6.70019 12.4751 7.81064 12.4751 9.17519V9.45019ZM10.7952 8.96949C10.8273 9.09324 10.939 9.17519 11.0611 9.17519C11.0839 9.17519 11.1073 9.17216 11.1307 9.16611C11.2775 9.12761 11.3655 8.97774 11.3273 8.83061C11.2016 8.34881 10.8249 7.97234 10.3442 7.84776C10.1965 7.81009 10.0469 7.89836 10.0089 8.04521C9.97099 8.19234 10.0593 8.34221 10.2064 8.38044C10.4943 8.45469 10.7198 8.68046 10.7952 8.96949ZM11.6501 9.17519C11.6501 9.32699 11.7733 9.45019 11.9251 9.45019C12.0769 9.45019 12.2001 9.32699 12.2001 9.17519C12.2001 8.00589 11.2855 7.04146 10.1176 6.97986C9.96824 6.97161 9.83651 7.08821 9.82854 7.24001C9.82056 7.39154 9.93689 7.52106 10.0887 7.52904C10.9643 7.57524 11.6501 8.29849 11.6501 9.17519Z" fill="white"/>
</svg>
