<svg width="66" height="66" viewBox="0 0 66 66" fill="none" xmlns="http://www.w3.org/2000/svg">
<g clip-path="url(#clip0_8_745)">
<path d="M32.5835 0.128273C32.0581 0.317795 31.8599 0.455627 30.4729 1.57554C28.3623 3.28125 28.1039 3.48801 27.9144 3.58277C27.6559 3.72922 27.2424 3.71199 26.0881 3.52246C23.4003 3.08311 22.5733 2.97974 22.0133 3.01419C21.238 3.0745 20.6177 3.38463 20.0319 4.0135C19.6098 4.47008 19.5237 4.65099 18.8948 6.27056C18.5243 7.24402 18.1022 8.33809 17.9558 8.70852C17.8179 9.07034 17.6112 9.46661 17.4992 9.5786C17.3872 9.69059 16.9134 9.91458 16.4568 10.0869C14.8373 10.6727 13.1143 11.3532 12.6663 11.5772C12.0805 11.8701 11.5723 12.3956 11.2622 13.0331C10.8745 13.817 10.8573 14.2564 11.1588 16.0913C11.6757 19.2443 11.7187 19.5803 11.5723 19.899C11.5034 20.0541 10.7883 20.9845 9.98718 21.9752C9.17739 22.9572 8.43653 23.8876 8.34177 24.0427C8.05748 24.5079 7.87657 25.3607 7.93688 25.9465C8.04025 26.92 8.19532 27.1612 10.8056 30.3314C11.7704 31.4944 11.7446 31.391 11.5206 32.8814C11.4172 33.5706 11.2363 34.7163 11.1157 35.4313C10.8745 36.9045 10.8917 37.4903 11.2105 38.188C11.5809 38.9978 12.3045 39.6267 13.2694 39.9885C13.4934 40.0747 13.6743 40.1522 13.6743 40.1608C13.6743 40.1867 13.5537 40.402 11.8221 43.3999C11.2622 44.3734 10.2456 46.1308 9.55644 47.3196C8.87588 48.4998 7.86796 50.2486 7.31662 51.1962C4.09472 56.7786 4.26701 56.4684 4.24978 56.8389C4.24117 57.1921 4.43931 57.5453 4.75805 57.752C4.9648 57.8899 5.27493 57.8899 9.17739 57.752C11.4861 57.6745 13.6484 57.6142 13.993 57.6142H14.6047L15.1905 58.7083C15.5092 59.3199 16.0433 60.3365 16.3879 60.9739C16.7239 61.6114 17.4647 62.9984 18.0247 64.0494C18.6622 65.2555 19.1188 66.0222 19.2566 66.1083C19.8682 66.5132 20.4971 66.272 20.9537 65.4536C21.2552 64.9281 22.0822 63.4894 24.4857 59.3371C26.3034 56.2014 28.2762 52.7727 29.353 50.8947C29.7493 50.2056 30.1025 49.6111 30.137 49.5681C30.1714 49.525 30.6108 49.8265 31.1104 50.2228C32.4026 51.2566 33.2555 51.515 34.3926 51.2049C34.9957 51.0498 35.2283 50.912 36.15 50.1711C36.598 49.8093 36.9857 49.5164 37.0115 49.5164C37.046 49.5164 37.6145 50.4812 38.2779 51.6528C38.9498 52.8244 39.8716 54.4181 40.3196 55.2021C40.7761 55.986 42.3612 58.7341 43.8516 61.3185C46.1517 65.2899 46.6083 66.0308 46.8495 66.1686C47.2285 66.3754 47.7368 66.3151 48.0211 66.0394C48.2106 65.8413 49.3047 63.8426 51.467 59.7248C52.0183 58.6824 52.518 57.7693 52.5869 57.6917C52.6472 57.6142 52.7936 57.5625 52.897 57.5797C53.0004 57.597 55.111 57.6745 57.5834 57.752C62.5283 57.9071 62.4766 57.9157 62.7867 57.4075C63.1054 56.882 63.0365 56.6666 61.8649 54.6335C61.2619 53.5998 60.3315 51.9716 59.7802 51.024C59.2374 50.0763 58.5913 48.9478 58.3415 48.5257C57.6523 47.3541 54.0428 41.0912 53.7757 40.6088C53.6465 40.3848 53.5776 40.1694 53.6207 40.135C53.6551 40.1005 53.9566 39.9627 54.2754 39.8248C55.0076 39.5233 55.6365 38.9375 55.9552 38.257C56.3257 37.4558 56.3171 36.7752 55.8949 34.2597C55.4987 31.8907 55.4814 31.5633 55.6968 31.236C55.7743 31.1154 56.4635 30.2453 57.2216 29.3149C58.8239 27.3507 59.0307 27.0492 59.1685 26.4893C59.3064 25.9035 59.2288 24.8352 59.0135 24.3614C58.9187 24.1461 58.0917 23.052 57.1871 21.9321C55.7313 20.1144 55.5417 19.8473 55.5417 19.5717C55.5417 19.3994 55.6968 18.2622 55.8949 17.0476C56.3257 14.3167 56.3257 13.7481 55.8863 12.9211C55.7226 12.611 55.4125 12.2147 55.1799 12.0079C54.7492 11.6289 54.7492 11.6289 51.0535 10.1989C50.3557 9.9318 49.7268 9.6389 49.6493 9.55276C49.5114 9.40631 49.1755 8.5793 48.1848 5.96904C47.4956 4.15995 47.039 3.59138 45.9277 3.16926C45.2558 2.91943 44.6872 2.94528 42.2492 3.34156C41.069 3.53108 39.9405 3.68614 39.7251 3.68614C39.3202 3.68614 39.4236 3.76368 35.9691 0.955284C35.0474 0.214417 34.6511 0.0421219 33.7465 0.00765991C33.2038 -0.0181808 32.9023 0.0162811 32.5835 0.128273ZM33.9533 2.1355C34.0739 2.17857 35.0387 2.91943 36.0897 3.78091C37.1493 4.64238 38.2262 5.44354 38.4846 5.57277C39.1738 5.90012 40.0525 5.86567 42.7403 5.4177C45.049 5.03004 45.2386 5.03004 45.6176 5.43493C45.7124 5.53831 46.1259 6.49454 46.5308 7.56276C47.7282 10.6899 47.866 10.9397 48.6327 11.4221C48.9687 11.6375 50.6141 12.3095 53.2416 13.2915C53.6723 13.4552 54.0428 13.8084 54.1289 14.153C54.1806 14.3512 54.1289 14.7216 53.5948 17.9866C53.3364 19.5544 53.3622 20.0369 53.724 20.8294C53.8188 21.0448 54.6114 22.1044 55.4987 23.1812C56.3774 24.2667 57.1182 25.2488 57.1441 25.3607C57.2388 25.7484 57.0924 26.1275 56.6013 26.7305C53.6465 30.3659 53.5431 30.521 53.4225 31.3997C53.3881 31.6926 53.4914 32.5626 53.7843 34.432L54.1892 37.0595L54.0256 37.361C53.8188 37.7487 53.5776 37.8693 51.3636 38.7049C49.0463 39.575 48.4518 39.8851 47.9953 40.4365C47.6334 40.8931 47.5559 41.074 46.3671 44.1753C46.0483 45.0023 45.7124 45.769 45.609 45.881C45.273 46.2428 45.0404 46.2428 42.7834 45.8724C41.3964 45.6398 40.3885 45.5192 39.8199 45.5192C39.0101 45.5105 38.924 45.5278 38.3985 45.7948C38.0711 45.9585 37.0804 46.6994 35.9864 47.5867C34.9698 48.4223 34.0394 49.1373 33.9188 49.189C33.4881 49.3527 33.1866 49.1976 31.7048 47.9916C30.9037 47.3455 29.9991 46.6132 29.689 46.3634C28.4829 45.3813 27.9833 45.3124 25.1749 45.7604C24.0808 45.9413 22.9868 46.1136 22.7283 46.1566C22.3493 46.2256 22.2028 46.2169 21.9013 46.0791C21.4706 45.8896 21.5137 45.9757 20.4885 43.2793C19.5581 40.8758 19.4806 40.7035 19.0412 40.2728C18.5588 39.7818 18.2228 39.6181 15.9572 38.748C13.4072 37.7745 13.3986 37.7745 13.2091 37.4472C12.9937 37.0854 13.0109 36.8614 13.4072 34.4493C13.7863 32.1577 13.8293 31.5203 13.6312 30.8483C13.4761 30.3314 13.1488 29.8662 11.4 27.7298C10.1681 26.205 10.1078 26.1188 10.0733 25.6967L10.0389 25.2574L11.2708 23.724C13.2177 21.3204 13.4847 20.95 13.6312 20.4676C13.8207 19.8043 13.7949 19.1754 13.4503 17.1251C13.0282 14.5751 13.0023 14.1099 13.2349 13.7826C13.4331 13.4983 13.5881 13.4294 16.3448 12.3784C19.3858 11.2154 19.1963 11.4394 20.8848 6.95973C21.4361 5.49523 21.5137 5.34878 21.9185 5.1851C22.2459 5.03865 22.1167 5.03004 25.5626 5.58138C27.4664 5.89151 27.9747 5.88289 28.6983 5.55553C28.9654 5.42632 29.9991 4.66822 31.1449 3.74644C32.2303 2.86774 33.1952 2.1355 33.2813 2.10965C33.557 2.04073 33.7293 2.04935 33.9533 2.1355ZM16.5085 41.2118C17.6715 41.6598 17.5595 41.5047 18.4554 43.8737C19.6959 47.1301 19.8855 47.4489 20.9795 47.983C21.505 48.2414 21.6084 48.2673 22.3751 48.2586C22.8317 48.25 23.7879 48.1466 24.5288 48.0174C27.2683 47.5522 27.5181 47.5178 27.8282 47.6556C27.9747 47.7245 28.1987 47.8537 28.3107 47.9485L28.5174 48.1122L28.0867 48.8789C27.8455 49.301 26.3637 51.8768 24.7872 54.5991C23.2107 57.3213 21.4792 60.3278 20.9279 61.2755C20.3851 62.2231 19.9285 63.007 19.9199 63.0242C19.8941 63.0501 19.3341 62.0163 17.2924 58.2C16.5257 56.7441 15.9744 55.8137 15.8107 55.6759C15.5006 55.4175 15.4661 55.4175 10.616 55.5898C8.7725 55.6501 7.2477 55.6931 7.22186 55.6759C7.1874 55.6328 7.42861 55.2021 10.2973 50.2486C11.0726 48.9134 12.6663 46.1566 14.4151 43.1157C15.3886 41.4272 15.7246 40.9103 15.8279 40.9534C15.8969 40.9792 16.207 41.0998 16.5085 41.2118ZM52.3629 42.4006C52.7161 43.0209 53.3019 44.0288 53.6637 44.6491C54.4907 46.0705 58.6516 53.281 59.427 54.6335C59.7543 55.2021 60.0128 55.6759 59.9955 55.6845C59.9869 55.6931 58.1865 55.6501 55.9983 55.5725C53.8102 55.5036 51.8805 55.4691 51.7168 55.495C51.3291 55.5725 51.1655 55.7879 50.416 57.2265C50.0972 57.8382 49.589 58.7944 49.2961 59.3371C49.0032 59.8799 48.4432 60.9395 48.0469 61.689C47.6507 62.4384 47.2975 63.0156 47.263 62.9812C47.2285 62.9467 46.4877 61.6717 45.6176 60.1555C44.7389 58.6394 43.5156 56.5029 42.8867 55.4175C42.2492 54.3234 41.2241 52.5401 40.5952 51.4547C39.9664 50.3606 39.2944 49.1976 39.0963 48.8617C38.9067 48.5257 38.7431 48.2069 38.7431 48.1553C38.7431 48.026 39.2513 47.6556 39.5184 47.5953C39.7338 47.5436 40.2765 47.6125 42.7058 48.026C43.4467 48.1466 44.4029 48.25 44.8595 48.2586C45.5918 48.2586 45.7296 48.2414 46.1862 48.0174C47.1596 47.5436 47.6334 46.8803 48.3054 45.0195C48.9859 43.176 49.5373 41.8493 49.7096 41.6942C49.813 41.5995 50.2523 41.3841 50.6744 41.2204C51.5876 40.8586 51.3981 40.7294 52.3629 42.4006Z" fill="#EE1D1D"/>
<path d="M32.2797 8.873C24.3455 9.48464 17.7898 15.782 16.9024 23.63C16.7474 24.9825 16.7388 26.4987 16.8766 26.9639C17.0058 27.3946 17.3504 27.6531 17.8328 27.6531C18.5995 27.6703 18.97 27.1103 18.8752 26.1024C18.7632 24.8533 19.1509 22.355 19.7022 20.7871C20.0382 19.8481 20.8652 18.1941 21.4079 17.4102C23.6219 14.1452 27.0161 11.9226 30.9099 11.1731C31.6594 11.0267 32.2883 10.975 33.5891 10.9578C35.4844 10.9233 35.5964 10.8975 35.8548 10.3461C36.1132 9.80339 35.8376 9.12282 35.269 8.95914C34.8727 8.82992 33.3393 8.79546 32.2797 8.873Z" fill="#EE1D1D"/>
<path d="M39.5592 10.2675C39.0595 10.4828 38.8269 11.0772 39.0423 11.5855C39.1974 11.9559 39.2318 11.9818 40.3 12.5417C40.7566 12.7743 41.3683 13.1362 41.6612 13.3343C42.3676 13.8081 42.6174 13.8943 42.9964 13.765C43.4444 13.6186 43.7373 13.2309 43.7373 12.783C43.7373 12.5848 43.677 12.335 43.5995 12.2316C43.2032 11.6717 40.524 10.1382 39.9554 10.1469C39.8779 10.1555 39.697 10.2072 39.5592 10.2675Z" fill="#EE1D1D"/>
<path d="M45.1687 14.2046C44.6173 14.3596 44.2469 14.9971 44.4106 15.4881C44.4623 15.626 44.7035 15.9878 44.9533 16.2807C45.9095 17.4351 46.659 18.7014 47.262 20.2004C48.0201 22.087 48.2614 23.4309 48.2614 25.6966C48.2527 28.2551 47.8995 29.8058 46.7796 32.2179C46.4092 33.0191 46.4264 33.3378 46.8916 33.7427C47.1242 33.9495 47.2707 34.0098 47.5636 34.0098C48.1235 34.0098 48.3475 33.7772 48.873 32.6745C50.0274 30.2279 50.6132 27.0577 50.3806 24.413C50.0791 20.9154 48.8299 17.7538 46.6935 15.0833C46.0043 14.2218 45.7028 14.0495 45.1687 14.2046Z" fill="#EE1D1D"/>
<path d="M34.288 17.2966C34.0037 17.4172 30.7904 19.5795 30.6612 19.7346C30.4889 19.9413 30.4372 20.5271 30.5578 20.8287C30.6181 20.9665 30.7904 21.1646 30.9455 21.2594C31.4279 21.5523 31.7122 21.492 32.6598 20.8717C33.1336 20.5616 33.5299 20.3118 33.5471 20.3118C33.5558 20.3118 33.573 22.6981 33.573 25.6098V30.9079H32.41C31.5313 30.9079 31.1781 30.9423 30.9886 31.0371C30.5148 31.2783 30.3339 31.9416 30.6009 32.4585C30.8766 32.9926 30.7732 32.9754 34.6757 32.9754H38.2422L38.5351 32.6825C38.7763 32.4413 38.828 32.3207 38.828 32.0364C38.828 31.8383 38.7677 31.5626 38.6987 31.4248C38.4748 30.9854 38.1905 30.9079 36.8897 30.9079H35.7267V24.533C35.7267 17.6326 35.7353 17.736 35.2701 17.4259C35.003 17.2536 34.5378 17.1846 34.288 17.2966Z" fill="#EE1D1D"/>
<path d="M19.4463 31.8996C18.223 32.3907 17.956 32.5974 17.8612 33.0884C17.7492 33.6484 18.3264 34.3203 18.9122 34.2945C19.386 34.2773 21.3329 33.4503 21.6258 33.1401C22.0566 32.6749 21.8757 31.7876 21.2985 31.5464C20.8505 31.3655 20.7041 31.3913 19.4463 31.8996Z" fill="#EE1D1D"/>
<path d="M23.0451 35.8013C22.7953 35.965 21.6237 37.1452 21.2791 37.5759C20.9259 38.0325 21.081 38.782 21.5979 39.0491C21.7357 39.118 22.0114 39.1783 22.2095 39.1783C22.5541 39.1783 22.6144 39.1352 23.5189 38.2479C24.0358 37.7396 24.5183 37.1969 24.5872 37.0418C24.7164 36.7403 24.6733 36.301 24.501 36.077C24.1737 35.6376 23.4845 35.517 23.0451 35.8013Z" fill="#EE1D1D"/>
<path d="M41.071 35.7066C40.8298 35.7927 40.5627 36.1028 40.468 36.3871C40.3043 36.8868 40.468 37.1711 41.5448 38.2221C42.501 39.1611 42.5269 39.1783 42.9231 39.1783C43.1471 39.1783 43.4142 39.118 43.5348 39.0404C43.9483 38.7648 44.1292 38.1187 43.9052 37.6879C43.7588 37.4123 42.277 35.9133 42.0014 35.7669C41.7688 35.6463 41.3208 35.6204 41.071 35.7066Z" fill="#EE1D1D"/>
<path d="M27.0677 38.4735C26.9299 38.5596 26.7662 38.7319 26.7059 38.8439C26.3613 39.5417 25.7928 40.9804 25.7583 41.2388C25.6808 41.8677 26.3269 42.4535 26.973 42.3329C27.5157 42.2295 27.6794 41.9711 28.4633 40.05C28.7304 39.3866 28.6959 38.999 28.3341 38.6372C27.9981 38.3098 27.4468 38.2323 27.0677 38.4735Z" fill="#EE1D1D"/>
<path d="M36.6906 38.5765C36.1135 38.9297 36.1048 39.3863 36.682 40.8077C37.1817 42.0741 37.5004 42.4531 38.0173 42.4531C38.6031 42.4531 39.0855 41.9879 39.0855 41.4194C39.0855 41.1437 38.6806 40.0152 38.2585 39.1278C37.9312 38.4387 37.2851 38.2147 36.6906 38.5765Z" fill="#EE1D1D"/>
<path d="M31.9189 39.5499C31.5398 39.8686 31.5054 40.0409 31.5054 41.4193C31.5054 42.8235 31.5657 43.0819 31.9706 43.349C32.2721 43.5471 32.8923 43.5299 33.1594 43.3145C33.5384 43.0216 33.5901 42.7546 33.5557 41.247L33.5298 39.8514L33.2455 39.6016C32.8837 39.2742 32.2721 39.2484 31.9189 39.5499Z" fill="#EE1D1D"/>
</g>
<defs>
<clipPath id="clip0_8_745">
<rect width="66" height="66" fill="white" transform="matrix(1 0 0 -1 0 66)"/>
</clipPath>
</defs>
</svg>
