<svg width="66" height="66" viewBox="0 0 66 66" fill="none" xmlns="http://www.w3.org/2000/svg">
<g clip-path="url(#clip0_8_819)">
<path fill-rule="evenodd" clip-rule="evenodd" d="M46.0245 21.4795C46.3341 21.4216 46.6042 21.2087 46.7598 20.9346C46.9167 20.6579 46.9277 20.3781 46.8204 20.1797C46.8164 20.1737 46.8085 20.1632 46.7979 20.1484C46.779 20.1221 46.7532 20.0864 46.7188 20.042C46.6497 19.9528 46.5517 19.8318 46.4239 19.6768C46.1681 19.3665 45.7951 18.9259 45.2911 18.3379C44.787 17.7498 44.1526 17.0153 43.3741 16.1192L40.5909 12.9268C38.7976 10.8702 37.2546 9.11109 37.1856 9.0254C37.1458 8.97814 37.0879 8.89937 37.0596 8.78907C37.0288 8.66814 37.045 8.55723 37.0665 8.47267C37.104 8.32549 37.1973 8.12268 37.3213 7.8545C37.7215 6.99188 37.8825 6.41162 37.9219 5.69532C38.008 4.22247 37.4586 2.82311 36.4044 1.8086C35.6847 1.11572 34.8779 0.686907 33.8995 0.480479C33.6372 0.42783 33.2076 0.397685 32.7647 0.399424C32.3172 0.401191 31.9068 0.435037 31.6788 0.491221H31.6768C30.1868 0.853946 28.8135 2.05153 28.2374 3.50001C27.688 4.89668 27.7534 6.28771 28.4795 7.85548C28.6052 8.12389 28.6968 8.3258 28.7335 8.47853C28.7541 8.565 28.7661 8.67148 28.7393 8.78614C28.7118 8.90292 28.6532 8.98508 28.6133 9.03419L28.6016 9.04786C28.5457 9.11075 26.9228 10.9706 24.9952 13.1777C21.6841 16.9689 19.7708 19.181 19.1465 19.9541C18.9974 20.1384 18.9314 20.2952 18.9131 20.4307C18.8998 20.5304 18.9095 20.6409 18.9532 20.7686L19.0098 20.9033C19.0652 21.0185 19.1776 21.152 19.3282 21.2666C19.4769 21.3797 19.6342 21.4537 19.7608 21.4795C19.8164 21.4895 19.9756 21.4952 20.4581 21.0762C20.9253 20.6704 21.5998 19.9552 22.6622 18.7637C23.6408 17.6554 29.2823 11.2051 29.9522 10.4141L30.209 10.1084L30.3829 9.9004L30.6407 9.98536L31.2061 10.1709C32.2601 10.5027 33.3086 10.5291 34.3858 10.2383L34.6016 10.1758L35.1729 9.99708L35.4278 9.91798L35.5997 10.1231L35.8438 10.417C35.9856 10.58 36.5376 11.2105 37.0674 11.8262L41.753 17.1885C43.2712 18.918 44.2351 19.987 44.8829 20.6367C45.3176 21.0728 45.5864 21.2948 45.7676 21.4033C45.9243 21.4971 45.9817 21.4875 46.0245 21.4795ZM32.9004 8.51661C32.6199 8.51661 32.4058 8.50905 32.2198 8.4795C32.0216 8.44801 31.8664 8.39281 31.6973 8.31251C30.1307 7.58713 29.4004 5.83035 30.0127 4.22169C30.3351 3.35965 31.0995 2.69548 32.0479 2.39259L32.0518 2.39161C32.3239 2.30732 32.5625 2.25563 32.8155 2.25001C33.068 2.24443 33.3115 2.28594 33.5938 2.35841H33.5958C34.5838 2.61556 35.2853 3.17755 35.7042 4.07228L35.7706 4.22267C36.4074 5.78161 35.7075 7.56473 34.1504 8.292L34.1485 8.29396C33.9634 8.37877 33.8035 8.44118 33.6006 8.47657C33.4091 8.50994 33.1936 8.51661 32.9004 8.51661Z" fill="#EE1D1D"/>
<path d="M20.5919 54.419C20.7904 54.4096 21.0407 54.2984 21.3555 53.9707L21.3565 53.9688L21.4815 53.8389L21.5235 48.8164C21.5414 45.9674 21.5411 44.3174 21.504 43.3311C21.4853 42.837 21.4573 42.5252 21.4219 42.3193C21.3871 42.1174 21.3492 42.0449 21.3262 42.0108C21.2266 41.8666 21.0698 41.7307 20.9034 41.6406C20.725 41.5442 20.6003 41.5332 20.5567 41.542L20.5479 41.544C20.2545 41.597 20.0606 41.684 19.9317 41.7881C19.8094 41.887 19.7207 42.0208 19.668 42.2149C19.66 42.2504 19.6476 42.3502 19.6358 42.5742C19.6241 42.7964 19.6146 43.1173 19.6075 43.5762C19.5932 44.4945 19.5879 45.9512 19.5879 48.2461V53.8213L19.8389 54.0537C20.1539 54.3435 20.397 54.4281 20.5919 54.419Z" fill="#EE1D1D"/>
<path d="M36.5186 54.2686C36.9231 54.4869 37.4034 54.4178 37.8409 53.957L37.8438 53.9541L37.9815 53.8125V42.3682L37.8516 42.1084L37.8497 42.1055C37.6519 41.7012 37.2942 41.5169 36.9229 41.5742L36.7588 41.6152C36.453 41.7161 36.3514 41.7981 36.2881 41.8975C36.2066 42.0261 36.1442 42.2537 36.0938 42.7578C36.0572 43.1108 36.0372 44.9004 36.0372 46.9404C36.0372 48.965 36.0566 51.1934 36.0958 52.4004C36.125 53.2785 36.1546 53.7008 36.2237 53.9434C36.2532 54.0468 36.2844 54.0942 36.3126 54.125C36.3466 54.1621 36.4013 54.2033 36.5186 54.2686Z" fill="#EE1D1D"/>
<path d="M28.3018 54.2783C28.7002 54.4821 29.1737 54.4075 29.6085 53.9609L29.7452 53.8154V42.3672L29.6143 42.1055C29.3882 41.6435 28.9528 41.4693 28.5274 41.6143L28.5245 41.6152C28.2213 41.7163 28.12 41.7969 28.0557 41.8965C27.973 42.0251 27.9083 42.2517 27.8506 42.7559C27.827 42.9593 27.81 43.6913 27.8028 44.7227C27.7956 45.7396 27.7978 47.0181 27.8067 48.2891C27.8156 49.56 27.8312 50.8233 27.8526 51.8106C27.8633 52.3041 27.8757 52.7277 27.8887 53.0479C27.8955 53.2148 27.9029 53.3464 27.9092 53.4424L27.9258 53.626C27.975 53.907 28.0174 54.027 28.0596 54.0947C28.0833 54.1326 28.1168 54.1709 28.1993 54.2217L28.3008 54.2774L28.3018 54.2783Z" fill="#EE1D1D"/>
<path d="M52.4717 57.7959C52.4882 57.7918 52.5157 57.7829 52.6504 57.6836C52.8324 57.5486 53.313 57.1053 53.961 56.4795C54.5987 55.8636 55.3755 55.0936 56.1348 54.3272C56.8942 53.5607 57.6354 52.7995 58.2012 52.2002C58.4843 51.9004 58.7218 51.6424 58.8956 51.4463C58.9825 51.3481 59.052 51.2674 59.1016 51.2061C59.1397 51.159 59.1577 51.133 59.1641 51.124C59.1876 51.0754 59.2225 50.9277 59.2217 50.7227C59.2208 50.5151 59.1853 50.3643 59.1592 50.3145L59.1583 50.3125C59.0711 50.1449 58.857 49.9683 58.5831 49.8662C58.3159 49.7667 58.104 49.7777 58.0001 49.8242C57.9926 49.8307 57.9837 49.8397 57.9727 49.8496C57.9319 49.8863 57.8738 49.9401 57.7999 50.0098C57.6522 50.1489 57.4464 50.3464 57.1973 50.5879C56.6992 51.0708 56.0305 51.7267 55.3116 52.4385C54.5914 53.1515 53.9188 53.8102 53.4151 54.2959C53.1638 54.5383 52.9527 54.7395 52.7989 54.8828C52.7225 54.954 52.6575 55.0133 52.6085 55.0567C52.5842 55.078 52.5604 55.0988 52.5401 55.1152C52.533 55.121 52.4984 55.1462 52.4571 55.1699L52.459 55.1719C52.4544 55.1746 52.4485 55.176 52.4434 55.1787C52.4414 55.1798 52.4396 55.1825 52.4376 55.1836L52.4366 55.1826C52.3961 55.204 52.3423 55.2286 52.2754 55.2402C52.1926 55.2546 52.1127 55.2475 52.0401 55.2276C51.9139 55.1927 51.8028 55.1153 51.712 55.0449C51.5209 54.8968 51.2236 54.6169 50.7305 54.1484C49.843 53.3044 49.3631 52.8732 49.0381 52.666C48.8847 52.5683 48.7938 52.5393 48.7335 52.5313C48.6751 52.5235 48.6073 52.5297 48.4854 52.5664C47.8804 52.7471 47.6266 53.3357 47.8731 53.8535L47.9297 53.9561L47.9307 53.958C47.9307 53.958 47.9342 53.9628 47.9415 53.9727C47.9493 53.9834 47.9605 53.9981 47.9747 54.0156C48.0033 54.0513 48.0421 54.0969 48.0899 54.1514C48.1855 54.2604 48.3124 54.3997 48.4629 54.5596C48.7639 54.8792 49.1519 55.2765 49.5538 55.6787C50.3666 56.4925 51.2074 57.2962 51.5098 57.5322C51.6969 57.676 51.772 57.7221 51.8331 57.7461C51.8882 57.7678 51.956 57.7814 52.1583 57.792H52.1651C52.3848 57.8071 52.4409 57.8035 52.4717 57.7959Z" fill="#EE1D1D"/>
<path fill-rule="evenodd" clip-rule="evenodd" d="M53.419 65.291C55.0393 65.291 55.4159 65.2681 55.8731 65.165L55.876 65.1641C58.3954 64.6157 60.7265 63.2681 62.3946 61.4063C63.6247 60.0306 64.6744 58.0212 65.0958 56.2393C65.5448 54.3244 65.4392 51.6 64.8477 49.8115L64.8467 49.8106C64.7246 49.4376 64.4397 48.8108 64.1104 48.1699C63.7826 47.5321 63.4276 46.9128 63.1749 46.5518L62.9346 46.2363C62.3044 45.4534 61.2257 44.379 60.5196 43.8477C60.3526 43.7233 60.1915 43.6043 60.0704 43.5137C60.0098 43.4684 59.9574 43.4287 59.918 43.3984C59.8999 43.3845 59.8702 43.3593 59.8428 43.3359V43.3379C59.8389 43.3347 59.8358 43.3304 59.8321 43.3272C59.8245 43.3205 59.8158 43.3148 59.8096 43.3086L59.8116 43.3067C59.7315 43.2264 59.7073 43.138 59.7032 43.1221C59.6937 43.0858 59.6906 43.054 59.6895 43.0381C59.6871 43.0044 59.6883 42.9719 59.6895 42.9502C59.6921 42.9033 59.6983 42.8454 59.7061 42.7852C59.7221 42.6618 59.7486 42.4922 59.7833 42.292C59.8531 41.8893 59.9579 41.3436 60.0801 40.7539L60.9854 36.3584C61.0618 35.9883 61.1085 35.7618 61.1368 35.6279C61.1508 35.5618 61.1613 35.5161 61.168 35.4863C61.1712 35.4721 61.1748 35.4571 61.1778 35.4453C61.1791 35.4399 61.1813 35.4297 61.1846 35.419C61.1863 35.4135 61.1904 35.4004 61.1963 35.3858C61.1994 35.3783 61.2061 35.3641 61.2149 35.3477C61.2208 35.3366 61.2433 35.2949 61.2852 35.2529L61.4024 35.1358H61.4932C61.5224 35.1241 61.5603 35.1082 61.6055 35.0899C61.7165 35.0449 61.8736 34.9818 62.0411 34.9141L62.3799 34.7656C64.0326 33.9852 65.0906 32.6019 65.377 30.8584C65.5393 29.8703 65.2688 28.5188 64.7051 27.5772C64.3135 26.9209 63.5561 26.181 62.8458 25.7363L62.546 25.5654C62.2262 25.4023 61.9868 25.3099 61.6651 25.249C61.3295 25.1855 60.8949 25.154 60.1788 25.1289C58.4927 25.0649 22.1334 25.0433 11.8868 25.1006C7.64243 25.1257 5.73072 25.1259 4.72076 25.1963C4.22261 25.2311 3.97723 25.2819 3.79205 25.3477C3.58924 25.4198 3.45453 25.5066 3.11431 25.6797L3.11333 25.6807C2.6399 25.9206 2.42258 26.0844 1.88384 26.6231L1.88189 26.625C1.586 26.9173 1.42235 27.0929 1.29791 27.2598C1.17648 27.4227 1.08335 27.5901 0.943413 27.877C0.768271 28.2416 0.575061 28.7268 0.520562 28.9443L0.518608 28.9512C0.445951 29.2207 0.402222 29.6697 0.400444 30.1426C0.398702 30.6166 0.439444 31.0592 0.510796 31.3184L0.512749 31.3233C0.644697 31.8247 1.00455 32.6114 1.27642 33L1.27837 33.0029C1.83025 33.8044 2.75824 34.5222 3.77056 34.9111L4.10748 35.0469C4.20542 35.0902 4.28905 35.1332 4.35748 35.1777C4.43357 35.2273 4.50903 35.2907 4.56939 35.377C4.60006 35.4209 4.62262 35.4654 4.6397 35.5078L4.67681 35.6299C4.79202 36.1699 6.21084 43.1552 6.51177 44.667C8.13795 52.8409 9.33825 58.6431 9.68658 60.044C9.89586 60.8847 10.0408 61.3162 10.2374 61.6133C10.4217 61.8919 10.6725 62.0825 11.1983 62.377L11.2002 62.3779L11.7032 62.6631L45.8213 62.7412L45.9463 62.7422L46.0489 62.8125L46.6573 63.2354C47.7769 64.0094 49.4437 64.7627 50.8165 65.1094C51.1793 65.201 51.3598 65.2422 51.6729 65.2647C52.0041 65.2884 52.4777 65.291 53.419 65.291ZM4.62896 33.2109L4.12798 32.9463C3.45064 32.5914 2.86971 32.0273 2.56158 31.3984C2.46626 31.2115 2.39568 31.0502 2.35845 30.8467C2.32377 30.6565 2.32173 30.4455 2.32525 30.167C2.32536 29.9 2.33398 29.6918 2.36822 29.5029C2.40421 29.3049 2.46528 29.143 2.54888 28.9639C2.7835 28.4487 3.21883 27.8995 3.66509 27.5772C3.80226 27.4763 3.94845 27.3634 4.14654 27.2803C4.34752 27.196 4.58146 27.1497 4.90826 27.1182C5.55107 27.0561 6.68995 27.0431 8.94341 27.0147C14.5036 26.9502 52.567 26.9433 57.3624 27.0078L61.1573 27.0508L61.2598 27.0518L61.7295 27.3174C62.9771 27.9999 63.6995 29.3681 63.46 30.6729L63.3985 30.9336C63.1268 31.8804 62.5616 32.5063 61.6055 32.9922L61.0752 33.2568H4.71685L4.62896 33.2109ZM27.6026 60.6846C21.4192 60.6846 17.5293 60.6785 15.1827 60.6651C14.01 60.6583 13.2203 60.6498 12.7217 60.6387C12.4736 60.6331 12.293 60.6273 12.1719 60.6201C12.1129 60.6166 12.0593 60.6122 12.0167 60.6065C11.9974 60.6039 11.9658 60.5989 11.9327 60.5899C11.9175 60.5857 11.8843 60.5761 11.8467 60.5567C11.8319 60.549 11.7176 60.4926 11.6592 60.3545C11.6572 60.3497 11.656 60.3453 11.6544 60.3408C11.6524 60.3358 11.6493 60.3305 11.6475 60.3252L11.6485 60.3242C11.6455 60.3156 11.6426 60.3076 11.6426 60.3076C11.6404 60.3003 11.6381 60.2931 11.6368 60.2881C11.6341 60.2779 11.6315 60.2659 11.629 60.2549C11.6236 60.2319 11.6164 60.2006 11.6085 60.1641C11.5922 60.0898 11.5697 59.9836 11.542 59.8516C11.4866 59.5867 11.4085 59.2095 11.3145 58.75L10.5967 55.207C9.00696 47.3011 7.25928 38.6656 6.98736 37.3418C6.91537 37.0068 6.85091 36.6772 6.80376 36.418C6.78016 36.2882 6.7599 36.1733 6.74615 36.083C6.73443 36.006 6.72175 35.9136 6.72173 35.8506V35.2647L8.20904 35.2354L10.7588 35.2236C20.8129 35.2 56.7022 35.2033 57.711 35.2285L58.7081 35.2568L59.1661 35.2705L59.0411 36.0234L59.0401 36.0225C58.9696 36.4697 58.6892 37.8959 58.4229 39.2041C58.289 39.8619 58.1581 40.4953 58.0577 40.9668C58.0075 41.2021 57.9645 41.3992 57.9327 41.5391C57.917 41.6082 57.9034 41.6664 57.8926 41.709C57.8875 41.7293 57.8816 41.751 57.876 41.7695C57.8734 41.7781 57.8683 41.793 57.8624 41.8086C57.8595 41.8161 57.8539 41.831 57.8458 41.8477C57.8422 41.8551 57.8175 41.9061 57.7686 41.9551L57.7344 41.9902L57.6915 42.0156C57.613 42.0626 57.5375 42.0705 57.5225 42.0723C57.4938 42.0757 57.4681 42.0763 57.4512 42.0762C57.4166 42.0759 57.3802 42.0727 57.3487 42.0693C57.2835 42.0624 57.2021 42.0501 57.1124 42.0342C56.9308 42.002 56.6931 41.9511 56.4395 41.8887C55.9971 41.7817 55.7975 41.7361 55.4502 41.7109C55.0846 41.6845 54.5634 41.6823 53.4883 41.6787L51.3936 41.6719L50.7422 41.8555L50.7432 41.8565C49.2981 42.2704 47.7075 42.9777 46.7422 43.6416L46.7393 43.6436C46.3433 43.9109 45.7015 44.4832 45.0792 45.1065C44.456 45.7305 43.8926 46.3653 43.6407 46.7481L43.6397 46.75C42.9449 47.7888 42.1955 49.5153 41.8399 50.8955L41.8389 50.8975C41.7396 51.2771 41.6957 51.4602 41.6719 51.75C41.6467 52.0572 41.6446 52.4822 41.6446 53.3379C41.6508 54.975 41.7007 55.6204 41.9024 56.3643L41.9991 56.6924C42.1976 57.336 42.6598 58.432 43.1485 59.4024L43.1495 59.4033L43.7891 60.6846H27.6026ZM53.5323 63.4443C52.5768 63.4452 51.6033 63.3471 50.8809 63.1397C50.0804 62.9099 49.2674 62.5991 48.3536 62.0264C47.7915 61.6741 47 61 47 61C47 61 45.2709 59.327 44.504 57.8076C43.1489 55.134 43.1739 51.7774 44.5538 49.0401C45.4609 47.2264 46.6525 45.9368 48.3809 44.916L48.6446 44.7647C49.9624 44.0286 51.271 43.6385 52.9825 43.459H52.9854C53.404 43.418 54.2408 43.4823 54.9874 43.6055C58.7928 44.2236 61.8216 46.7972 63.0362 50.4404C63.3618 51.4174 63.4502 52.1157 63.4502 53.4815C63.4502 54.8461 63.3607 55.5442 63.0352 56.5137C62.3717 58.5191 61.113 60.2556 59.4102 61.542L59.4073 61.544C59.0225 61.8287 58.4438 62.1608 57.8614 62.4502C57.2793 62.7394 56.6624 63.0013 56.1983 63.1328L56.1973 63.1318C55.4647 63.3424 54.4871 63.4434 53.5323 63.4443Z" fill="#EE1D1D"/>
</g>
<defs>
<clipPath id="clip0_8_819">
<rect width="66" height="66" fill="white" transform="matrix(1 0 0 -1 0 66)"/>
</clipPath>
</defs>
</svg>
