<svg width="66" height="66" viewBox="0 0 66 66" fill="none" xmlns="http://www.w3.org/2000/svg">
<g clip-path="url(#clip0_8_780)">
<path d="M0.764217 9.96037C0.561734 10.0265 0.214622 10.3822 0.152638 10.5931C0.00387529 11.1059 0.206357 11.6187 0.660909 11.8627L0.826201 11.9537L20.7438 11.9744C40.0664 11.9951 40.6656 11.9992 40.8061 12.0736C41.0086 12.1812 41.2111 12.3797 41.3144 12.5741L41.4053 12.7395L41.4177 26.8293L41.4259 40.9233H22.8306H4.23534V36.155V31.3909L4.13616 31.1841C3.90889 30.7002 3.38822 30.4769 2.85515 30.6341C2.62788 30.7002 2.2849 31.0435 2.21878 31.2709C2.18159 31.3991 2.16919 32.6026 2.16919 36.275V41.1094L1.97085 41.188C1.11546 41.5354 0.429501 42.346 0.185696 43.2972C0.107183 43.6115 0.10305 43.7521 0.10305 47.1143C0.10305 51.01 0.0947857 50.9025 0.392311 51.5311C0.793143 52.3954 1.54522 53.0116 2.47498 53.2473C2.78491 53.3259 2.94193 53.33 5.61966 53.33H8.43375L8.50813 53.7105C8.68168 54.6121 9.16516 55.7328 9.71062 56.4937C10.8015 58.0115 12.3966 59.0454 14.2396 59.4176C14.6446 59.5003 14.8347 59.5127 15.5991 59.5127C16.3636 59.5127 16.5537 59.5003 16.9587 59.4176C18.4917 59.1074 19.8926 58.3217 20.9215 57.1926C21.7934 56.2373 22.4587 54.9346 22.6901 53.7105L22.7645 53.33H34.1944H45.6244L45.6987 53.7105C45.8723 54.6121 46.3558 55.7328 46.9012 56.4937C47.9922 58.0115 49.5872 59.0454 51.4302 59.4176C51.8352 59.5003 52.0253 59.5127 52.7897 59.5127C53.5542 59.5127 53.7443 59.5003 54.1493 59.4176C55.6823 59.1074 57.0832 58.3217 58.1121 57.1926C58.984 56.2373 59.6493 54.9346 59.8807 53.7105L59.9551 53.33H61.7361C63.3891 53.33 63.5461 53.3259 63.8477 53.2473C64.9924 52.9537 65.8519 52.0976 66.137 50.9562C66.2156 50.6419 66.2197 50.4889 66.2197 47.1267C66.2197 43.7521 66.2156 43.6115 66.137 43.2972C65.8932 42.346 65.2073 41.5354 64.3519 41.188L64.1535 41.1094V38.7894C64.1535 36.2502 64.1453 36.1095 63.9056 35.3693C63.8395 35.1625 63.7114 34.8482 63.6287 34.6786C63.4882 34.4016 56.7361 23.8476 55.9138 22.6235C55.2071 21.5689 54.2484 20.8328 53.1286 20.4771C52.517 20.2869 52.1327 20.2455 50.86 20.2455H49.6905V19.0958C49.6905 18.033 49.6823 17.9379 49.6037 17.7642C49.3806 17.2679 48.8517 17.0363 48.3103 17.1935C48.0831 17.2596 47.7401 17.6029 47.674 17.8303C47.6409 17.9461 47.6244 18.3638 47.6244 19.1248V20.2455H45.5582H43.4921V16.4284C43.4921 12.7477 43.488 12.5947 43.4094 12.2804C43.1739 11.3499 42.5582 10.5973 41.6945 10.1961C41.021 9.87766 43.0541 9.90661 20.8389 9.91075C6.43372 9.91488 0.867524 9.92729 0.764217 9.96037ZM51.9798 22.3547C52.7608 22.4705 53.484 22.8757 53.9592 23.4713C54.2195 23.8021 61.6948 35.452 61.7981 35.6918C61.8477 35.8035 61.9262 36.0268 61.9717 36.1881C62.0585 36.4652 62.0626 36.5727 62.0791 38.6984L62.0915 40.9233H52.7939H43.4921V31.6183V22.3133H47.5955C50.079 22.3133 51.8063 22.3298 51.9798 22.3547ZM63.5544 43.1028C63.7486 43.2062 63.9469 43.4088 64.0544 43.6115C64.1287 43.7479 64.1329 43.9175 64.1329 47.1267C64.1329 50.3359 64.1287 50.5054 64.0544 50.6419C63.9469 50.8446 63.7486 51.0472 63.5544 51.1506C63.3932 51.2374 63.3395 51.2416 61.6742 51.254L59.9551 51.2664L59.8807 50.8818C59.7072 49.9802 59.2237 48.8595 58.6783 48.0985C57.5873 46.5767 55.9923 45.5469 54.1493 45.1747C53.7443 45.092 53.5542 45.0796 52.7897 45.0796C52.0253 45.0796 51.8352 45.092 51.4302 45.1747C49.5831 45.551 47.9922 46.5767 46.9012 48.0985C46.3558 48.8595 45.8723 49.9802 45.6987 50.8776L45.6244 51.2622H34.1944H22.7645L22.6901 50.8776C22.5166 49.9802 22.0331 48.8595 21.4876 48.0985C20.3967 46.5767 18.8017 45.5469 16.9587 45.1747C16.5537 45.092 16.3636 45.0796 15.5991 45.0796C14.8347 45.0796 14.6446 45.092 14.2396 45.1747C12.3925 45.551 10.8015 46.5767 9.71062 48.0985C9.16516 48.8595 8.68168 49.9802 8.50813 50.8818L8.43375 51.2664L5.68164 51.254C2.95433 51.2416 2.93367 51.2416 2.76838 51.1506C2.57416 51.0472 2.37168 50.8446 2.26837 50.6419C2.20639 50.5261 2.18986 50.3731 2.17746 49.8437L2.16093 49.1945H2.27663C2.43779 49.1945 2.78491 49.0249 2.92127 48.8802C2.98326 48.814 3.07003 48.6775 3.11549 48.5741C3.194 48.4004 3.20227 48.3053 3.20227 47.1267C3.20227 45.948 3.194 45.8529 3.11549 45.6792C3.07003 45.5758 2.98326 45.4394 2.92127 45.3732C2.78491 45.2285 2.43779 45.0589 2.27663 45.0589H2.16093L2.17746 44.4055C2.19399 43.6942 2.22291 43.599 2.47498 43.3302C2.61548 43.1772 2.78491 43.078 2.97499 43.0283C3.04524 43.0118 16.6653 43.0035 33.244 43.0077L63.3891 43.0118L63.5544 43.1028ZM16.6487 47.2549C18.6446 47.6602 20.2149 49.24 20.6447 51.2622C20.7149 51.5972 20.7356 51.833 20.7356 52.2961C20.7356 52.7593 20.7149 52.995 20.6447 53.33C20.2149 55.3606 18.6612 56.9156 16.6281 57.3457C16.0248 57.4739 15.1735 57.4739 14.5702 57.3457C12.5371 56.9156 10.9834 55.3606 10.5536 53.33C10.4255 52.7221 10.4255 51.8702 10.5536 51.2664C11.0206 49.0621 12.7809 47.4534 15.0289 47.168C15.4462 47.1184 16.1611 47.1556 16.6487 47.2549ZM53.8393 47.2549C55.8352 47.6602 57.4055 49.24 57.8353 51.2622C57.9055 51.5972 57.9262 51.833 57.9262 52.2961C57.9262 52.7593 57.9055 52.995 57.8353 53.33C57.4055 55.3606 55.8518 56.9156 53.8187 57.3457C53.2154 57.4739 52.3641 57.4739 51.7608 57.3457C49.7277 56.9156 48.174 55.3606 47.7442 53.33C47.6161 52.7221 47.6161 51.8702 47.7442 51.2664C48.2112 49.0621 49.9715 47.4534 52.2195 47.168C52.6368 47.1184 53.3517 47.1556 53.8393 47.2549Z" fill="#EE1D1D"/>
<path d="M51.3442 34.7207C54.9352 34.7207 55.4025 34.7122 55.605 34.6543C56.3527 34.4309 56.9393 33.8109 57.0923 33.0791C57.1543 32.7607 57.1167 32.2356 57.0093 31.9502C56.9638 31.822 56.0134 30.258 54.9019 28.4756C52.7327 24.998 52.6295 24.8529 52.1626 24.6172C51.7039 24.3856 51.6706 24.3818 49.3813 24.3818C47.3114 24.386 47.2697 24.3856 47.0054 24.4766C46.3111 24.7123 45.828 25.2134 45.6255 25.9082C45.5677 26.1068 45.5591 26.5464 45.5591 29.5557C45.5591 32.8514 45.5636 32.9841 45.6421 33.2363C45.857 33.9308 46.3855 34.4475 47.0835 34.6543C47.2818 34.7122 47.774 34.7207 51.3442 34.7207ZM47.6255 26.4492H51.1704L53.0962 29.5264C54.1509 31.2128 55.0169 32.6034 55.022 32.6279C55.022 32.6403 53.3568 32.6533 51.3237 32.6533H47.6255V26.4492Z" fill="#EE1D1D"/>
<path d="M51.3442 34.7207C54.9352 34.7207 55.4025 34.7122 55.605 34.6543C56.3527 34.4309 56.9393 33.8109 57.0923 33.0791C57.1543 32.7607 57.1167 32.2356 57.0093 31.9502C56.9638 31.822 56.0134 30.258 54.9019 28.4756C52.7327 24.998 52.6295 24.8529 52.1626 24.6172C51.7039 24.3856 51.6706 24.3818 49.3813 24.3818C47.3114 24.386 47.2697 24.3856 47.0054 24.4766C46.3111 24.7123 45.828 25.2134 45.6255 25.9082C45.5677 26.1068 45.5591 26.5464 45.5591 29.5557C45.5591 32.8514 45.5636 32.9841 45.6421 33.2363C45.857 33.9308 46.3855 34.4475 47.0835 34.6543C47.2818 34.7122 47.774 34.7207 51.3442 34.7207ZM47.6255 26.4492H51.1704L53.0962 29.5264C54.1509 31.2128 55.0169 32.6034 55.022 32.6279C55.022 32.6403 53.3568 32.6533 51.3237 32.6533H47.6255V26.4492Z" stroke="#EE1D1D"/>
<path d="M47.6255 38.856C48.8651 38.856 48.8898 38.8515 49.0923 38.7564C49.4683 38.5786 49.6919 38.2354 49.6919 37.8218C49.6918 37.4084 49.4682 37.0651 49.0923 36.8873C48.8899 36.7922 48.8689 36.7884 47.6255 36.7925C46.8321 36.7967 46.3111 36.8134 46.2202 36.8423C46.0177 36.9088 45.6708 37.2643 45.6089 37.4752C45.4521 38.0085 45.6753 38.529 46.1587 38.7564C46.3611 38.8515 46.386 38.856 47.6255 38.856Z" fill="#EE1D1D"/>
<path d="M47.6255 38.856C48.8651 38.856 48.8898 38.8515 49.0923 38.7564C49.4683 38.5786 49.6919 38.2354 49.6919 37.8218C49.6918 37.4084 49.4682 37.0651 49.0923 36.8873C48.8899 36.7922 48.8689 36.7884 47.6255 36.7925C46.8321 36.7967 46.3111 36.8134 46.2202 36.8423C46.0177 36.9088 45.6708 37.2643 45.6089 37.4752C45.4521 38.0085 45.6753 38.529 46.1587 38.7564C46.3611 38.8515 46.386 38.856 47.6255 38.856Z" stroke="#EE1D1D"/>
<path d="M6.90137 49.0948C7.42599 49.3426 8.03739 49.1116 8.28125 48.5743C8.35976 48.4006 8.36816 48.3047 8.36816 47.126C8.36816 45.8857 8.36359 45.8609 8.26855 45.6583C8.15286 45.4102 7.99595 45.2572 7.74805 45.1456C7.54143 45.0505 7.20256 45.0379 6.96289 45.1124C6.7604 45.1786 6.41354 45.5343 6.35156 45.7452C6.31851 45.8652 6.30176 46.2996 6.30176 47.1514C6.30176 48.305 6.31016 48.4006 6.38867 48.5743C6.50023 48.8222 6.65357 48.9791 6.90137 49.0948Z" fill="#EE1D1D"/>
<path d="M6.90137 49.0948C7.42599 49.3426 8.03739 49.1116 8.28125 48.5743C8.35976 48.4006 8.36816 48.3047 8.36816 47.126C8.36816 45.8857 8.36359 45.8609 8.26855 45.6583C8.15286 45.4102 7.99595 45.2572 7.74805 45.1456C7.54143 45.0505 7.20256 45.0379 6.96289 45.1124C6.7604 45.1786 6.41354 45.5343 6.35156 45.7452C6.31851 45.8652 6.30176 46.2996 6.30176 47.1514C6.30176 48.305 6.31016 48.4006 6.38867 48.5743C6.50023 48.8222 6.65357 48.9791 6.90137 49.0948Z" stroke="#EE1D1D"/>
<path d="M23.4321 49.0948C23.9568 49.3426 24.5682 49.1116 24.812 48.5743C24.8905 48.4006 24.8989 48.3047 24.8989 47.126C24.8989 45.8857 24.8944 45.8609 24.7993 45.6583C24.6836 45.4102 24.5267 45.2572 24.2788 45.1456C24.0722 45.0505 23.7333 45.0379 23.4937 45.1124C23.2912 45.1786 22.9443 45.5343 22.8823 45.7452C22.8493 45.8652 22.8325 46.2996 22.8325 47.1514C22.8325 48.305 22.8409 48.4006 22.9194 48.5743C23.031 48.8222 23.1843 48.9791 23.4321 49.0948Z" fill="#EE1D1D"/>
<path d="M23.4321 49.0948C23.9568 49.3426 24.5682 49.1116 24.812 48.5743C24.8905 48.4006 24.8989 48.3047 24.8989 47.126C24.8989 45.8857 24.8944 45.8609 24.7993 45.6583C24.6836 45.4102 24.5267 45.2572 24.2788 45.1456C24.0722 45.0505 23.7333 45.0379 23.4937 45.1124C23.2912 45.1786 22.9443 45.5343 22.8823 45.7452C22.8493 45.8652 22.8325 46.2996 22.8325 47.1514C22.8325 48.305 22.8409 48.4006 22.9194 48.5743C23.031 48.8222 23.1843 48.9791 23.4321 49.0948Z" stroke="#EE1D1D"/>
<path d="M28.5952 49.0948C29.1198 49.3427 29.7312 49.1116 29.9751 48.5743C30.0536 48.4006 30.062 48.3047 30.062 47.1261C30.062 45.8858 30.0574 45.861 29.9624 45.6583C29.8467 45.4102 29.6898 45.2573 29.4419 45.1456C29.2353 45.0505 28.8964 45.038 28.6567 45.1124C28.4543 45.1786 28.1074 45.5343 28.0454 45.7452C28.0124 45.8652 27.9956 46.2996 27.9956 47.1515C27.9956 48.3051 28.004 48.4007 28.0825 48.5743C28.1941 48.8222 28.3474 48.9791 28.5952 49.0948Z" fill="#EE1D1D"/>
<path d="M28.5952 49.0948C29.1198 49.3427 29.7312 49.1116 29.9751 48.5743C30.0536 48.4006 30.062 48.3047 30.062 47.1261C30.062 45.8858 30.0574 45.861 29.9624 45.6583C29.8467 45.4102 29.6898 45.2573 29.4419 45.1456C29.2353 45.0505 28.8964 45.038 28.6567 45.1124C28.4543 45.1786 28.1074 45.5343 28.0454 45.7452C28.0124 45.8652 27.9956 46.2996 27.9956 47.1515C27.9956 48.3051 28.004 48.4007 28.0825 48.5743C28.1941 48.8222 28.3474 48.9791 28.5952 49.0948Z" stroke="#EE1D1D"/>
<path d="M33.7617 49.0948C34.2863 49.3426 34.8977 49.1116 35.1416 48.5743C35.2201 48.4006 35.2285 48.3047 35.2285 47.126C35.2285 45.8857 35.2239 45.8609 35.1289 45.6583C35.0132 45.4102 34.8563 45.2572 34.6084 45.1456C34.4018 45.0505 34.0629 45.0379 33.8232 45.1124C33.6208 45.1786 33.2739 45.5343 33.2119 45.7452C33.1789 45.8652 33.1621 46.2996 33.1621 47.1514C33.1621 48.305 33.1705 48.4006 33.249 48.5743C33.3606 48.8222 33.5139 48.9791 33.7617 49.0948Z" fill="#EE1D1D"/>
<path d="M33.7617 49.0948C34.2863 49.3426 34.8977 49.1116 35.1416 48.5743C35.2201 48.4006 35.2285 48.3047 35.2285 47.126C35.2285 45.8857 35.2239 45.8609 35.1289 45.6583C35.0132 45.4102 34.8563 45.2572 34.6084 45.1456C34.4018 45.0505 34.0629 45.0379 33.8232 45.1124C33.6208 45.1786 33.2739 45.5343 33.2119 45.7452C33.1789 45.8652 33.1621 46.2996 33.1621 47.1514C33.1621 48.305 33.1705 48.4006 33.249 48.5743C33.3606 48.8222 33.5139 48.9791 33.7617 49.0948Z" stroke="#EE1D1D"/>
<path d="M38.9253 49.0948C39.4499 49.3426 40.0613 49.1116 40.3052 48.5743C40.3837 48.4006 40.3921 48.3047 40.3921 47.126C40.3921 45.8857 40.3875 45.8609 40.2925 45.6583C40.1768 45.4102 40.0199 45.2572 39.772 45.1456C39.5654 45.0505 39.2265 45.0379 38.9868 45.1124C38.7843 45.1786 38.4375 45.5343 38.3755 45.7452C38.3424 45.8652 38.3257 46.2996 38.3257 47.1514C38.3257 48.305 38.3341 48.4006 38.4126 48.5743C38.5242 48.8222 38.6775 48.9791 38.9253 49.0948Z" fill="#EE1D1D"/>
<path d="M38.9253 49.0948C39.4499 49.3426 40.0613 49.1116 40.3052 48.5743C40.3837 48.4006 40.3921 48.3047 40.3921 47.126C40.3921 45.8857 40.3875 45.8609 40.2925 45.6583C40.1768 45.4102 40.0199 45.2572 39.772 45.1456C39.5654 45.0505 39.2265 45.0379 38.9868 45.1124C38.7843 45.1786 38.4375 45.5343 38.3755 45.7452C38.3424 45.8652 38.3257 46.2996 38.3257 47.1514C38.3257 48.305 38.3341 48.4006 38.4126 48.5743C38.5242 48.8222 38.6775 48.9791 38.9253 49.0948Z" stroke="#EE1D1D"/>
<path d="M44.0918 49.0948C44.6164 49.3426 45.2278 49.1116 45.4717 48.5743C45.5502 48.4006 45.5586 48.3047 45.5586 47.126C45.5586 45.8857 45.554 45.8609 45.459 45.6583C45.3433 45.4102 45.1864 45.2572 44.9385 45.1456C44.7319 45.0505 44.393 45.0379 44.1533 45.1124C43.9508 45.1786 43.604 45.5343 43.542 45.7452C43.5089 45.8652 43.4922 46.2996 43.4922 47.1514C43.4922 48.305 43.5006 48.4006 43.5791 48.5743C43.6907 48.8222 43.844 48.9791 44.0918 49.0948Z" fill="#EE1D1D"/>
<path d="M44.0918 49.0948C44.6164 49.3426 45.2278 49.1116 45.4717 48.5743C45.5502 48.4006 45.5586 48.3047 45.5586 47.126C45.5586 45.8857 45.554 45.8609 45.459 45.6583C45.3433 45.4102 45.1864 45.2572 44.9385 45.1456C44.7319 45.0505 44.393 45.0379 44.1533 45.1124C43.9508 45.1786 43.604 45.5343 43.542 45.7452C43.5089 45.8652 43.4922 46.2996 43.4922 47.1514C43.4922 48.305 43.5006 48.4006 43.5791 48.5743C43.6907 48.8222 43.844 48.9791 44.0918 49.0948Z" stroke="#EE1D1D"/>
<path d="M60.6206 49.0948C61.1452 49.3426 61.7566 49.1116 62.0005 48.5743C62.079 48.4006 62.0874 48.3047 62.0874 47.126C62.0874 45.8857 62.0828 45.8609 61.9878 45.6583C61.8721 45.4102 61.7152 45.2572 61.4673 45.1456C61.2607 45.0505 60.9218 45.0379 60.6821 45.1124C60.4796 45.1786 60.1328 45.5343 60.0708 45.7452C60.0377 45.8652 60.021 46.2996 60.021 47.1514C60.021 48.305 60.0294 48.4006 60.1079 48.5743C60.2195 48.8222 60.3728 48.9791 60.6206 49.0948Z" fill="#EE1D1D"/>
<path d="M60.6206 49.0948C61.1452 49.3426 61.7566 49.1116 62.0005 48.5743C62.079 48.4006 62.0874 48.3047 62.0874 47.126C62.0874 45.8857 62.0828 45.8609 61.9878 45.6583C61.8721 45.4102 61.7152 45.2572 61.4673 45.1456C61.2607 45.0505 60.9218 45.0379 60.6821 45.1124C60.4796 45.1786 60.1328 45.5343 60.0708 45.7452C60.0377 45.8652 60.021 46.2996 60.021 47.1514C60.021 48.305 60.0294 48.4006 60.1079 48.5743C60.2195 48.8222 60.3728 48.9791 60.6206 49.0948Z" stroke="#EE1D1D"/>
<path d="M15.604 54.3636C16.7402 54.3636 17.6653 53.4375 17.6655 52.2963C17.6655 51.3616 17.0585 50.5631 16.1411 50.2943C15.8105 50.1992 15.3106 50.212 14.98 50.3236C14.0875 50.6297 13.5337 51.3824 13.5337 52.2963C13.5339 53.4416 14.4554 54.3636 15.604 54.3636Z" fill="#EE1D1D"/>
<path d="M15.604 54.3636C16.7402 54.3636 17.6653 53.4375 17.6655 52.2963C17.6655 51.3616 17.0585 50.5631 16.1411 50.2943C15.8105 50.1992 15.3106 50.212 14.98 50.3236C14.0875 50.6297 13.5337 51.3824 13.5337 52.2963C13.5339 53.4416 14.4554 54.3636 15.604 54.3636Z" stroke="#EE1D1D"/>
<path d="M52.793 54.3636C53.9292 54.3636 54.8543 53.4375 54.8545 52.2963C54.8545 51.3616 54.2474 50.5631 53.3301 50.2943C52.9995 50.1992 52.4995 50.212 52.1689 50.3236C51.2765 50.6297 50.7227 51.3824 50.7227 52.2963C50.7229 53.4416 51.6443 54.3636 52.793 54.3636Z" fill="#EE1D1D"/>
<path d="M52.793 54.3636C53.9292 54.3636 54.8543 53.4375 54.8545 52.2963C54.8545 51.3616 54.2474 50.5631 53.3301 50.2943C52.9995 50.1992 52.4995 50.212 52.1689 50.3236C51.2765 50.6297 50.7227 51.3824 50.7227 52.2963C50.7229 53.4416 51.6443 54.3636 52.793 54.3636Z" stroke="#EE1D1D"/>
<path d="M3.20264 16.1104C5.42146 16.1104 5.50031 16.1062 5.68213 16.0235C5.92989 15.9119 6.08698 15.7588 6.20264 15.5108C6.45048 14.9857 6.21899 14.3741 5.68213 14.1299C5.50031 14.0472 5.42559 14.0428 3.20264 14.0469C1.65303 14.0511 0.863335 14.0678 0.76416 14.0967C0.561638 14.1631 0.214787 14.5187 0.152832 14.7296C-0.00398186 15.2629 0.219271 15.7834 0.702637 16.0108L0.908691 16.1104H3.20264Z" fill="#EE1D1D"/>
<path d="M3.20264 16.1104C5.42146 16.1104 5.50031 16.1062 5.68213 16.0235C5.92989 15.9119 6.08698 15.7588 6.20264 15.5108C6.45048 14.9857 6.21899 14.3741 5.68213 14.1299C5.50031 14.0472 5.42559 14.0428 3.20264 14.0469C1.65303 14.0511 0.863335 14.0678 0.76416 14.0967C0.561638 14.1631 0.214787 14.5187 0.152832 14.7296C-0.00398186 15.2629 0.219271 15.7834 0.702637 16.0108L0.908691 16.1104H3.20264Z" stroke="#EE1D1D"/>
<path d="M20.7661 16.1104C32.3329 16.1104 32.3567 16.1103 32.5425 16.0235C32.7904 15.9119 32.9473 15.7588 33.063 15.5108C33.3109 14.9856 33.0797 14.3739 32.5425 14.1299C32.3565 14.0431 32.3402 14.0428 20.7661 14.0469C12.4396 14.0511 9.13309 14.0637 9.02979 14.0967C8.82726 14.1631 8.48041 14.5187 8.41846 14.7296C8.26164 15.2629 8.4849 15.7834 8.96826 16.0108L9.17432 16.1104H20.7661Z" fill="#EE1D1D"/>
<path d="M20.7661 16.1104C32.3329 16.1104 32.3567 16.1103 32.5425 16.0235C32.7904 15.9119 32.9473 15.7588 33.063 15.5108C33.3109 14.9856 33.0797 14.3739 32.5425 14.1299C32.3565 14.0431 32.3402 14.0428 20.7661 14.0469C12.4396 14.0511 9.13309 14.0637 9.02979 14.0967C8.82726 14.1631 8.48041 14.5187 8.41846 14.7296C8.26164 15.2629 8.4849 15.7834 8.96826 16.0108L9.17432 16.1104H20.7661Z" stroke="#EE1D1D"/>
<path d="M12.5005 20.2455C24.067 20.2455 24.0911 20.2454 24.2769 20.1586C24.814 19.9147 25.0452 19.303 24.7974 18.7778C24.6817 18.5296 24.5248 18.3767 24.2769 18.2651C24.0909 18.1782 24.0744 18.1779 12.5005 18.1821C4.17393 18.1862 0.867467 18.1988 0.76416 18.2319C0.561637 18.2983 0.214787 18.6539 0.152832 18.8647C-0.00398142 19.398 0.219271 19.9185 0.702637 20.1459L0.908691 20.2455H12.5005Z" fill="#EE1D1D"/>
<path d="M12.5005 20.2455C24.067 20.2455 24.0911 20.2454 24.2769 20.1586C24.814 19.9147 25.0452 19.303 24.7974 18.7778C24.6817 18.5296 24.5248 18.3767 24.2769 18.2651C24.0909 18.1782 24.0744 18.1779 12.5005 18.1821C4.17393 18.1862 0.867467 18.1988 0.76416 18.2319C0.561637 18.2983 0.214787 18.6539 0.152832 18.8647C-0.00398142 19.398 0.219271 19.9185 0.702637 20.1459L0.908691 20.2455H12.5005Z" stroke="#EE1D1D"/>
<path d="M16.0327 24.2825C16.4088 24.1046 16.6323 23.7615 16.6323 23.3479C16.6322 22.9345 16.4087 22.5911 16.0327 22.4133L15.8267 22.3147L8.36768 22.3186C3.05362 22.3227 0.867467 22.3353 0.76416 22.3684C0.561638 22.4348 0.214787 22.7904 0.152832 23.0012C-0.00398184 23.5346 0.219271 24.0551 0.702637 24.2825L0.908691 24.3821H15.8267L16.0327 24.2825Z" fill="#EE1D1D"/>
<path d="M16.0327 24.2825C16.4088 24.1046 16.6323 23.7615 16.6323 23.3479C16.6322 22.9345 16.4087 22.5911 16.0327 22.4133L15.8267 22.3147L8.36768 22.3186C3.05362 22.3227 0.867467 22.3353 0.76416 22.3684C0.561638 22.4348 0.214787 22.7904 0.152832 23.0012C-0.00398184 23.5346 0.219271 24.0551 0.702637 24.2825L0.908691 24.3821H15.8267L16.0327 24.2825Z" stroke="#EE1D1D"/>
<path d="M4.23584 28.5158C7.49005 28.5158 7.56595 28.5115 7.74756 28.4289C7.9955 28.3172 8.15334 28.1643 8.26904 27.9162C8.51688 27.391 8.28471 26.7793 7.74756 26.5353C7.56584 26.4527 7.49508 26.4482 4.23584 26.4523C1.93416 26.4565 0.863335 26.4691 0.76416 26.5021C0.561638 26.5685 0.214787 26.9241 0.152832 27.1349C-0.00398164 27.6683 0.219271 28.1888 0.702637 28.4162L0.908691 28.5158H4.23584Z" fill="#EE1D1D"/>
<path d="M4.23584 28.5158C7.49005 28.5158 7.56595 28.5115 7.74756 28.4289C7.9955 28.3172 8.15334 28.1643 8.26904 27.9162C8.51688 27.391 8.28471 26.7793 7.74756 26.5353C7.56584 26.4527 7.49508 26.4482 4.23584 26.4523C1.93416 26.4565 0.863335 26.4691 0.76416 26.5021C0.561638 26.5685 0.214787 26.9241 0.152832 27.1349C-0.00398164 27.6683 0.219271 28.1888 0.702637 28.4162L0.908691 28.5158H4.23584Z" stroke="#EE1D1D"/>
</g>
<defs>
<clipPath id="clip0_8_780">
<rect width="66" height="66" fill="white" transform="matrix(1 0 0 -1 0 66)"/>
</clipPath>
</defs>
</svg>
